<svg width="26" height="20" viewBox="0 0 26 20" fill="none" xmlns="http://www.w3.org/2000/svg">
<g clip-path="url(#clip0_1012_34829)">
<path d="M25.4678 19.7291V19.7811H25.5164C25.5271 19.7811 25.5363 19.7787 25.5429 19.7746C25.5491 19.7706 25.5526 19.7635 25.5526 19.7549C25.5526 19.7463 25.5491 19.7398 25.5429 19.7357C25.5363 19.7311 25.5271 19.7291 25.5164 19.7291H25.4678ZM25.5168 19.6928C25.5419 19.6928 25.5614 19.6983 25.5751 19.7095C25.5889 19.7205 25.5955 19.7357 25.5955 19.7549C25.5955 19.7711 25.5904 19.7842 25.5792 19.7948C25.5684 19.8049 25.5532 19.8115 25.5327 19.814L25.5971 19.8873H25.547L25.4872 19.8145H25.4678V19.8873H25.4259V19.6928H25.5168ZM25.5041 19.9545C25.5271 19.9545 25.5485 19.9499 25.568 19.9414C25.5879 19.9328 25.6052 19.9211 25.6201 19.9065C25.6349 19.8918 25.6467 19.8747 25.6553 19.8545C25.6635 19.8348 25.6681 19.8135 25.6681 19.7908C25.6681 19.7681 25.6635 19.7468 25.6553 19.7271C25.6467 19.7075 25.6349 19.6898 25.6201 19.6751C25.6052 19.6605 25.5879 19.6488 25.568 19.6402C25.5485 19.6321 25.5271 19.6281 25.5041 19.6281C25.4811 19.6281 25.4591 19.6321 25.4392 19.6402C25.4188 19.6488 25.4009 19.6605 25.3861 19.6751C25.3712 19.6898 25.3595 19.7075 25.3513 19.7271C25.3426 19.7468 25.3385 19.7681 25.3385 19.7908C25.3385 19.8135 25.3426 19.8348 25.3513 19.8545C25.3595 19.8747 25.3712 19.8918 25.3861 19.9065C25.4009 19.9211 25.4188 19.9328 25.4392 19.9414C25.4591 19.9499 25.4811 19.9545 25.5041 19.9545ZM25.5041 19.5811C25.5343 19.5811 25.5618 19.5867 25.5884 19.5978C25.6145 19.6084 25.637 19.6235 25.6568 19.6428C25.6763 19.6615 25.6917 19.6837 25.7029 19.7095C25.7141 19.7347 25.7197 19.762 25.7197 19.7908C25.7197 19.8196 25.7141 19.8468 25.7029 19.8721C25.6917 19.8974 25.6763 19.9196 25.6568 19.9388C25.637 19.9575 25.6145 19.9727 25.5884 19.9838C25.5618 19.9949 25.5343 20.0005 25.5041 20.0005C25.4734 20.0005 25.4453 19.9949 25.4187 19.9838C25.3922 19.9727 25.3692 19.9575 25.3497 19.9388C25.3303 19.9196 25.315 19.8974 25.3038 19.8721C25.2925 19.8468 25.2869 19.8196 25.2869 19.7908C25.2869 19.762 25.2925 19.7347 25.3038 19.7095C25.315 19.6837 25.3303 19.6615 25.3497 19.6428C25.3692 19.6235 25.3922 19.6084 25.4187 19.5978C25.4453 19.5867 25.4734 19.5811 25.5041 19.5811ZM5.59479 18.8318C5.59479 18.461 5.84058 18.1564 6.24223 18.1564C6.626 18.1564 6.88508 18.4479 6.88508 18.8318C6.88508 19.2158 6.626 19.5074 6.24223 19.5074C5.84058 19.5074 5.59479 19.2027 5.59479 18.8318ZM7.3225 18.8318V17.7769H6.8585V18.0331C6.71133 17.8431 6.48802 17.7239 6.18449 17.7239C5.5861 17.7239 5.117 18.1877 5.117 18.8318C5.117 19.4765 5.5861 19.9398 6.18449 19.9398C6.48802 19.9398 6.71133 19.8206 6.8585 19.6306V19.8868H7.3225V18.8318ZM23.0022 18.8318C23.0022 18.461 23.248 18.1564 23.6496 18.1564C24.0339 18.1564 24.2925 18.4479 24.2925 18.8318C24.2925 19.2158 24.0339 19.5074 23.6496 19.5074C23.248 19.5074 23.0022 19.2027 23.0022 18.8318ZM24.7305 18.8318V16.9297H24.2659V18.0331C24.1187 17.8431 23.8955 17.7239 23.5919 17.7239C22.9935 17.7239 22.5244 18.1877 22.5244 18.8318C22.5244 19.4765 22.9935 19.9398 23.5919 19.9398C23.8955 19.9398 24.1187 19.8206 24.2659 19.6306V19.8868H24.7305V18.8318ZM13.0821 18.1346C13.381 18.1346 13.5731 18.3201 13.6222 18.6465H12.5148C12.5644 18.3418 12.7514 18.1346 13.0821 18.1346ZM13.0913 17.7239C12.4658 17.7239 12.0284 18.1741 12.0284 18.8318C12.0284 19.5028 12.4837 19.9398 13.1224 19.9398C13.4439 19.9398 13.7382 19.8605 13.9973 19.6443L13.7699 19.3042C13.591 19.4452 13.3631 19.5251 13.149 19.5251C12.85 19.5251 12.5777 19.3881 12.5108 19.0081H14.0954C14.1 18.9511 14.1046 18.8935 14.1046 18.8318C14.1 18.1741 13.6891 17.7239 13.0913 17.7239ZM18.6939 18.8318C18.6939 18.461 18.9397 18.1564 19.3414 18.1564C19.7251 18.1564 19.9842 18.4479 19.9842 18.8318C19.9842 19.2158 19.7251 19.5074 19.3414 19.5074C18.9397 19.5074 18.6939 19.2027 18.6939 18.8318ZM20.4216 18.8318V17.7769H19.9576V18.0331C19.8099 17.8431 19.5872 17.7239 19.2836 17.7239C18.6852 17.7239 18.2161 18.1877 18.2161 18.8318C18.2161 19.4765 18.6852 19.9398 19.2836 19.9398C19.5872 19.9398 19.8099 19.8206 19.9576 19.6306V19.8868H20.4216V18.8318ZM16.0735 18.8318C16.0735 19.472 16.5242 19.9398 17.212 19.9398C17.5334 19.9398 17.7476 19.8691 17.9795 19.6882L17.7567 19.3174C17.5825 19.4411 17.3996 19.5074 17.1982 19.5074C16.8277 19.5028 16.5554 19.2381 16.5554 18.8318C16.5554 18.4257 16.8277 18.1609 17.1982 18.1564C17.3996 18.1564 17.5825 18.2225 17.7567 18.3463L17.9795 17.9755C17.7476 17.7946 17.5334 17.7239 17.212 17.7239C16.5242 17.7239 16.0735 18.1918 16.0735 18.8318ZM22.0558 17.7239C21.788 17.7239 21.6138 17.8477 21.4932 18.0331V17.7769H21.0333V19.8868H21.4978V18.7041C21.4978 18.3549 21.6495 18.1609 21.9531 18.1609C22.0471 18.1609 22.1453 18.1741 22.2434 18.214L22.3864 17.7815C22.2837 17.7416 22.1498 17.7239 22.0558 17.7239ZM9.61745 17.9447C9.39408 17.7991 9.0865 17.7239 8.74716 17.7239C8.20651 17.7239 7.85855 17.9801 7.85855 18.3994C7.85855 18.7435 8.11764 18.9556 8.59494 19.0218L8.81413 19.0526C9.06861 19.088 9.18868 19.1542 9.18868 19.2735C9.18868 19.4366 9.01905 19.5296 8.70225 19.5296C8.38079 19.5296 8.14876 19.428 7.99245 19.3088L7.77372 19.666C8.02822 19.8514 8.34959 19.9398 8.6976 19.9398C9.31388 19.9398 9.6711 19.6528 9.6711 19.2512C9.6711 18.8804 9.39007 18.6864 8.92553 18.6201L8.70682 18.5888C8.50599 18.5626 8.34502 18.5231 8.34502 18.3817C8.34502 18.2271 8.49677 18.1346 8.75125 18.1346C9.02362 18.1346 9.28733 18.2362 9.41662 18.3155L9.61745 17.9447ZM15.6044 17.7239C15.3366 17.7239 15.1624 17.8477 15.0422 18.0331V17.7769H14.5823V19.8868H15.0463V18.7041C15.0463 18.3549 15.1982 18.1609 15.5016 18.1609C15.5957 18.1609 15.6938 18.1741 15.7919 18.214L15.935 17.7815C15.8323 17.7416 15.6984 17.7239 15.6044 17.7239ZM11.6446 17.7769H10.8858V17.1368H10.4167V17.7769H9.98381V18.1963H10.4167V19.1588C10.4167 19.6483 10.6088 19.9398 11.1576 19.9398C11.3589 19.9398 11.5909 19.8782 11.7381 19.7766L11.6042 19.3835C11.4657 19.4629 11.314 19.5028 11.1934 19.5028C10.9614 19.5028 10.8858 19.3614 10.8858 19.1497V18.1963H11.6446V17.7769ZM4.70666 19.8868V18.5626C4.70666 18.0639 4.38524 17.7285 3.86707 17.7239C3.5947 17.7194 3.31365 17.8032 3.11692 18.0993C2.96975 17.8654 2.73775 17.7239 2.41173 17.7239C2.18382 17.7239 1.96102 17.7901 1.78677 18.0371V17.7769H1.32227V19.8868H1.79086V18.7171C1.79086 18.3509 1.99628 18.1564 2.31361 18.1564C2.62175 18.1564 2.77761 18.3549 2.77761 18.7126V19.8868H3.24671V18.7171C3.24671 18.3509 3.46082 18.1564 3.76896 18.1564C4.08578 18.1564 4.23755 18.3549 4.23755 18.7126V19.8868H4.70666Z" fill="#9A9C9E"/>
<path d="M25.7552 12.8697V12.5615H25.674L25.58 12.7732L25.4865 12.5615H25.4047V12.8697H25.4625V12.6373L25.5503 12.8378H25.6101L25.698 12.6368V12.8697H25.7552ZM25.2396 12.8697V12.6141H25.3439V12.562H25.0781V12.6141H25.1824V12.8697H25.2396Z" fill="#F79410"/>
<path d="M16.5147 14.1955H9.48242V1.7002H16.5147V14.1955Z" fill="#FF5F00"/>
<path d="M9.93397 7.94672C9.93397 5.41201 11.1343 3.15415 13.0035 1.69908C11.6367 0.635073 9.91144 0 8.0366 0C3.59799 0 0 3.55782 0 7.94672C0 12.3356 3.59799 15.8935 8.0366 15.8935C9.91144 15.8935 11.6367 15.2584 13.0035 14.1944C11.1343 12.7393 9.93397 10.4815 9.93397 7.94672Z" fill="#EB001B"/>
<path d="M26.0001 7.94672C26.0001 12.3356 22.4022 15.8935 17.9636 15.8935C16.0887 15.8935 14.3635 15.2584 12.9961 14.1944C14.8658 12.7393 16.0662 10.4815 16.0662 7.94672C16.0662 5.41201 14.8658 3.15415 12.9961 1.69908C14.3635 0.635073 16.0887 0 17.9636 0C22.4022 0 26.0001 3.55782 26.0001 7.94672Z" fill="#F79E1B"/>
</g>
<defs>
<clipPath id="clip0_1012_34829">
<rect width="26" height="20" fill="white"/>
</clipPath>
</defs>
</svg>
