<svg width="49" height="14" viewBox="0 0 49 14" fill="none" xmlns="http://www.w3.org/2000/svg">
<g clip-path="url(#clip0_1012_34843)">
<path fill-rule="evenodd" clip-rule="evenodd" d="M13.2011 0.415039V0.420968C13.1951 0.420968 11.3031 0.415039 10.7986 2.19945C10.3361 3.83565 9.03273 8.35301 8.99674 8.47753H8.63636C8.63636 8.47753 7.30295 3.85937 6.83446 2.19352C6.32993 0.409111 4.43195 0.415039 4.43195 0.415039H0.107422V13.9908H4.43195V5.92834H4.61213H4.79232L7.31496 13.9908H10.3181L12.8407 5.93426H13.2011V13.9908H17.5257V0.415039H13.2011Z" fill="#4DB45E"/>
<path fill-rule="evenodd" clip-rule="evenodd" d="M28.9968 0.415039C28.9968 0.415039 27.7295 0.527676 27.1348 1.83782L24.0717 8.47753H23.7113V0.415039H19.3867V13.9908H23.471C23.471 13.9908 24.7984 13.8722 25.393 12.568L28.3961 5.92833H28.7565V13.9908H33.0811V0.415039H28.9968Z" fill="#4DB45E"/>
<path fill-rule="evenodd" clip-rule="evenodd" d="M35.0039 6.58105V13.9914H39.3284V9.66375H44.0133C46.0554 9.66375 47.7852 8.3773 48.4279 6.58105H35.0039Z" fill="#4DB45E"/>
<path fill-rule="evenodd" clip-rule="evenodd" d="M44.0126 0.415039H34.3965C34.877 2.99977 36.8411 5.07466 39.3817 5.75049C39.9583 5.90462 40.565 5.98762 41.1896 5.98762H48.6014C48.6674 5.67935 48.6974 5.36515 48.6974 5.03909C48.6974 2.48401 46.6012 0.415039 44.0126 0.415039Z" fill="url(#paint0_linear_1012_34843)"/>
</g>
<defs>
<linearGradient id="paint0_linear_1012_34843" x1="34.3976" y1="3.20133" x2="48.6974" y2="3.20133" gradientUnits="userSpaceOnUse">
<stop offset="0.3" stop-color="#00B4E6"/>
<stop offset="1" stop-color="#088CCB"/>
</linearGradient>
<clipPath id="clip0_1012_34843">
<rect width="49" height="14" fill="white"/>
</clipPath>
</defs>
</svg>
