<svg width="20" height="20" viewBox="0 0 20 20" fill="none" xmlns="http://www.w3.org/2000/svg">
<mask id="mask0_1012_34848" style="mask-type:alpha" maskUnits="userSpaceOnUse" x="0" y="1" width="19" height="19">
<path fill-rule="evenodd" clip-rule="evenodd" d="M16.996 10.24C16.999 10.327 17 10.413 17 10.5C17 14.642 13.642 18 9.5 18C5.358 18 2 14.642 2 10.5C2 6.358 5.358 3 9.5 3C11.024 3 12.441 3.454 13.624 4.235L15.257 2.942C13.66 1.724 11.664 1 9.5 1C4.253 1 0 5.253 0 10.5C0 15.747 4.253 20 9.5 20C14.747 20 19 15.747 19 10.5C19 9.913 18.947 9.338 18.845 8.78L16.996 10.24Z" fill="#C4C4C4"/>
</mask>
<g mask="url(#mask0_1012_34848)">
<path d="M16.994 10.203C16.998 10.302 17 10.401 17 10.5C17 14.642 13.642 18 9.5 18C5.358 18 2 14.642 2 10.5C2 6.358 5.358 3 9.5 3C11.024 3 12.441 3.454 13.624 4.235L15.257 2.942C13.66 1.724 11.664 1 9.5 1C4.253 1 0 5.253 0 10.5C0 15.747 4.253 20 9.5 20C14.747 20 19 15.747 19 10.5C19 9.895 18.943 9.303 18.835 8.729L16.994 10.203Z" fill="#24A236"/>
<path d="M8.40385 9.03914C13.0452 9.03914 16.8077 5.2766 16.8077 0.635284C16.8077 -4.00603 13.0452 -7.76855 8.40385 -7.76855C3.76254 -7.76855 0 -4.00603 0 0.635284C0 5.2766 3.76254 9.03914 8.40385 9.03914Z" fill="#008ACB"/>
<g filter="url(#filter0_f_1012_34848)">
<path d="M7.30769 28.0392C11.3436 28.0392 14.6154 24.7674 14.6154 20.7315C14.6154 16.6956 11.3436 13.4238 7.30769 13.4238C3.27177 13.4238 0 16.6956 0 20.7315C0 24.7674 3.27177 28.0392 7.30769 28.0392Z" fill="#77F628"/>
</g>
<g filter="url(#filter1_f_1012_34848)">
<path d="M0.731522 14.1544C4.76745 14.1544 8.03922 10.8827 8.03922 6.84674C8.03922 2.81081 4.76745 -0.460938 0.731522 -0.460938C-3.3044 -0.460938 -6.57617 2.81081 -6.57617 6.84674C-6.57617 10.8827 -3.3044 14.1544 0.731522 14.1544Z" fill="#19E7E8"/>
</g>
<g filter="url(#filter2_f_1012_34848)">
<path d="M0.000442505 20.0009C3.22918 20.0009 5.84659 17.3835 5.84659 14.1548C5.84659 10.926 3.22918 8.30859 0.000442505 8.30859C-3.2283 8.30859 -5.8457 10.926 -5.8457 14.1548C-5.8457 17.3835 -3.2283 20.0009 0.000442505 20.0009Z" fill="#DEFA1B"/>
</g>
</g>
<path fill-rule="evenodd" clip-rule="evenodd" d="M18.049 6.35098L9.5 13V10.5L16.999 4.66699C17.405 5.18799 17.757 5.75198 18.049 6.35098Z" fill="#24A236"/>
<path fill-rule="evenodd" clip-rule="evenodd" d="M6 10.8045L9.5 12.9995V10.4995L6 8.31152V10.8045Z" fill="#24A236"/>
<defs>
<filter id="filter0_f_1012_34848" x="-8" y="5.42383" width="30.6152" height="30.6152" filterUnits="userSpaceOnUse" color-interpolation-filters="sRGB">
<feFlood flood-opacity="0" result="BackgroundImageFix"/>
<feBlend mode="normal" in="SourceGraphic" in2="BackgroundImageFix" result="shape"/>
<feGaussianBlur stdDeviation="4" result="effect1_foregroundBlur_1012_34848"/>
</filter>
<filter id="filter1_f_1012_34848" x="-14.5762" y="-8.46094" width="30.6152" height="30.6152" filterUnits="userSpaceOnUse" color-interpolation-filters="sRGB">
<feFlood flood-opacity="0" result="BackgroundImageFix"/>
<feBlend mode="normal" in="SourceGraphic" in2="BackgroundImageFix" result="shape"/>
<feGaussianBlur stdDeviation="4" result="effect1_foregroundBlur_1012_34848"/>
</filter>
<filter id="filter2_f_1012_34848" x="-11.8457" y="2.30859" width="23.6914" height="23.6924" filterUnits="userSpaceOnUse" color-interpolation-filters="sRGB">
<feFlood flood-opacity="0" result="BackgroundImageFix"/>
<feBlend mode="normal" in="SourceGraphic" in2="BackgroundImageFix" result="shape"/>
<feGaussianBlur stdDeviation="3" result="effect1_foregroundBlur_1012_34848"/>
</filter>
</defs>
</svg>
