<svg width="46" height="20" viewBox="0 0 46 20" fill="none" xmlns="http://www.w3.org/2000/svg">
<path d="M19.9092 17.7661H16.1875L18.5153 2.74707H22.2368L19.9092 17.7661Z" fill="#00579F"/>
<path d="M33.4003 3.11403C32.6662 2.81014 31.5019 2.47461 30.0622 2.47461C26.387 2.47461 23.7989 4.51966 23.7831 7.44345C23.7525 9.60062 25.636 10.7988 27.0448 11.518C28.4846 12.253 28.9741 12.7327 28.9741 13.3879C28.9594 14.3941 27.8106 14.8578 26.7391 14.8578C25.2532 14.8578 24.4571 14.6187 23.2472 14.059L22.7571 13.819L22.2363 17.1904C23.1093 17.6054 24.7174 17.9736 26.387 17.9898C30.292 17.9898 32.8343 15.9764 32.8644 12.8606C32.8793 11.1509 31.8848 9.84081 29.7405 8.77029C28.4388 8.08309 27.6416 7.61971 27.6416 6.91658C27.657 6.27738 28.3159 5.62266 29.7853 5.62266C30.9952 5.59059 31.8841 5.89406 32.5575 6.19774L32.8941 6.35722L33.4003 3.11403Z" fill="#00579F"/>
<path d="M38.3459 12.4454C38.6524 11.5826 39.8317 8.24321 39.8317 8.24321C39.8163 8.27528 40.1376 7.36445 40.3214 6.80531L40.5815 8.09944C40.5815 8.09944 41.2863 11.6945 41.4393 12.4454C40.8577 12.4454 39.081 12.4454 38.3459 12.4454ZM42.9398 2.74707H40.0611C39.1734 2.74707 38.499 3.01847 38.1159 3.99321L32.5879 17.766H36.4929C36.4929 17.766 37.1358 15.9122 37.274 15.513C37.7024 15.513 41.5012 15.513 42.0523 15.513C42.1591 16.0403 42.4964 17.766 42.4964 17.766H45.9422L42.9398 2.74707Z" fill="#00579F"/>
<path d="M13.0791 2.74707L9.43432 12.9887L9.03604 10.9116C8.36222 8.51482 6.24894 5.91084 3.89062 4.61607L7.22906 17.7502H11.1646L17.0144 2.74707H13.0791Z" fill="#00579F"/>
<path d="M6.04903 2.74707H0.0612573L0 3.05053C4.67084 4.29688 7.76426 7.30117 9.03517 10.9122L7.73352 4.00956C7.51921 3.05032 6.86064 2.77871 6.04903 2.74707Z" fill="#FAA61A"/>
</svg>
