<svg width="27" height="20" viewBox="0 0 27 20" fill="none" xmlns="http://www.w3.org/2000/svg">
<g clip-path="url(#clip0_1012_34864)">
<path fill-rule="evenodd" clip-rule="evenodd" d="M17.2805 19.44C22.6492 19.44 27.0005 15.0887 27.0005 9.72C27.0005 4.35132 22.6492 0 17.2805 0C11.9119 0 7.56055 4.35132 7.56055 9.72C7.56055 15.0887 11.9119 19.44 17.2805 19.44ZM17.2805 13.5C19.3682 13.5 21.0605 11.8076 21.0605 9.72C21.0605 7.63236 19.3682 5.94 17.2805 5.94C15.1929 5.94 13.5005 7.63236 13.5005 9.72C13.5005 11.8076 15.1929 13.5 17.2805 13.5Z" fill="#8A42F9"/>
<path d="M7.56 3.24023H0L4.03161 16.2002H7.56V3.24023Z" fill="#8A42F9"/>
</g>
<defs>
<clipPath id="clip0_1012_34864">
<rect width="27" height="20" fill="white"/>
</clipPath>
</defs>
</svg>
