<svg width="36" height="34" viewBox="0 0 36 34" fill="none" xmlns="http://www.w3.org/2000/svg">
<path fill-rule="evenodd" clip-rule="evenodd" d="M19.0112 2.45166L21.4279 1.26999C22.5429 0.724991 23.8912 1.16166 24.4729 2.25999L25.7345 4.63666C26.0679 5.26332 26.6712 5.70166 27.3712 5.82499L30.0212 6.28999C31.2445 6.50499 32.0762 7.64999 31.9029 8.87999L31.5262 11.5433C31.4262 12.2467 31.6579 12.9567 32.1512 13.4667L34.0212 15.4C34.8845 16.2917 34.8845 17.7083 34.0212 18.6017L32.1512 20.535C31.6579 21.045 31.4262 21.755 31.5262 22.4583L31.9029 25.1217C32.0762 26.3517 31.2445 27.4967 30.0212 27.7117L27.3712 28.1767C26.6712 28.3 26.0679 28.7383 25.7345 29.365L24.4729 31.7417C23.8912 32.8383 22.5445 33.2767 21.4279 32.7317L19.0112 31.55C18.3729 31.2383 17.6279 31.2383 16.9895 31.55L14.5729 32.7317C13.4579 33.2767 12.1095 32.84 11.5279 31.7417L10.2662 29.3633C9.93286 28.7367 9.32953 28.2983 8.62953 28.175L5.97953 27.71C4.7562 27.495 3.92453 26.35 4.09786 25.12L4.47453 22.4567C4.57453 21.7533 4.34286 21.0433 3.84953 20.5333L1.97953 18.6C1.1162 17.7083 1.1162 16.2917 1.97953 15.3983L3.84953 13.465C4.34286 12.955 4.57453 12.245 4.47453 11.5417L4.09953 8.87832C3.92453 7.64999 4.75786 6.50332 5.9812 6.28999L8.6312 5.82499C9.32953 5.70166 9.93286 5.26332 10.2662 4.63666L11.5279 2.25999C12.1095 1.16332 13.4562 0.724991 14.5729 1.26999L16.9895 2.45166C17.6262 2.76332 18.3729 2.76332 19.0112 2.45166Z" fill="#E2195B" fill-opacity="0.1" stroke="#353949" stroke-width="2" stroke-linecap="round" stroke-linejoin="round"/>
</svg>
