<svg width="330" height="517" viewBox="0 0 330 517" fill="none" xmlns="http://www.w3.org/2000/svg">
<path d="M170.752 59.099C172.358 57.6399 174.053 56.2718 175.826 54.9913C181.282 51.0557 187.261 48.0216 193.028 44.5955C193.092 44.6038 193.155 44.6104 193.218 44.6203C193.263 44.627 193.304 44.6253 193.34 44.617C193.41 44.6634 193.478 44.7113 193.547 44.7593C187.593 51.7869 180.222 58.2636 170.752 59.099ZM169.402 58.9104C171.134 54.5794 173.7 50.7695 177.636 48.0779C181.945 45.1315 187.242 43.8941 192.404 44.5112C184.39 48.1606 176.016 52.7299 169.402 58.9104ZM168.931 58.1627C168.453 52.619 169.976 47.2061 172.946 42.483C175.687 38.1238 179.406 34.5289 183.35 31.26C181.922 33.3428 180.63 35.5348 179.277 37.6639C177.758 40.0577 176.238 42.4499 174.744 44.8586C172.162 49.0242 169.851 53.3155 168.931 58.1627V58.1627ZM184.031 30.6992C183.644 36.2776 181.98 41.5334 179.242 46.4219C179.234 46.4368 179.229 46.45 179.224 46.4633C178.585 46.8123 177.965 47.1961 177.364 47.613C173.875 50.0432 170.881 53.6761 169.45 57.7607C170.315 52.9731 172.871 48.6404 175.412 44.5575C178.271 39.9667 181.403 35.4636 184.008 30.719C184.017 30.7124 184.023 30.7058 184.031 30.6992ZM162.442 53.7506C161.766 46.6684 160.178 39.8145 157.731 33.131C156.434 29.5858 154.816 26.1729 152.92 22.9106C152.922 22.9023 152.923 22.8957 152.927 22.8874C158.24 25.622 161.356 30.5635 162.906 36.2759C163.758 39.4224 164.347 42.7708 164.117 46.0381C163.931 48.6735 163.227 51.2327 162.442 53.7506V53.7506ZM153.709 39.5068C151.721 34.2725 151.444 28.5039 152.87 23.1008C157.933 32.5007 160.479 42.9975 161.445 53.61C158.897 48.8968 155.613 44.5194 153.709 39.5068V39.5068ZM144.289 45.5848C144.526 45.608 144.763 45.6345 144.998 45.6659C148.986 48.5113 152.414 52.1691 155.18 56.1973C156.426 58.0105 157.483 59.8766 158.394 61.8039C151.466 58.879 146.063 52.9516 144.289 45.5848V45.5848ZM158.694 59.8749C155.516 54.1559 150.796 49.2641 145.353 45.7188C152.49 46.8702 157.966 52.6984 158.694 59.8749ZM193.952 44.665C193.964 44.5889 193.943 44.5112 193.858 44.4615C193.767 44.4053 193.675 44.3507 193.582 44.2994C193.582 44.1869 193.521 44.0843 193.373 44.0612C188.897 43.3515 184.235 44.0033 180.169 45.9752C182.961 41.1181 184.5 35.5364 184.758 29.9531C184.773 29.6338 184.389 29.5395 184.179 29.7132C179.588 33.5181 175.143 37.7053 172.087 42.8816C169.197 47.7735 167.493 53.7936 168.85 59.4349C166.59 61.6103 164.548 63.981 162.816 66.5783C162.894 62.8891 162.864 59.2033 162.59 55.4959C163.634 52.2865 164.648 49.0192 164.793 45.6245C164.94 42.2497 164.282 38.7624 163.334 35.5331C161.736 30.0986 158.295 24.3813 152.655 22.4507C152.654 22.4474 152.652 22.4457 152.65 22.4424C152.632 22.411 152.599 22.4093 152.576 22.4226C152.563 22.4176 152.551 22.4126 152.538 22.4093C152.424 22.3713 152.339 22.5185 152.394 22.6045C152.379 22.6293 152.366 22.6558 152.358 22.6889C150.884 28.1399 151.051 33.9814 152.975 39.3017C153.974 42.0677 155.478 44.6005 156.97 47.1217C158.462 49.6445 159.9 52.2352 161.538 54.6737C161.779 57.6565 161.9 60.6475 161.918 63.622C161.926 64.9239 161.89 66.2226 161.834 67.5196C161.226 65.3011 160.384 63.1588 159.347 61.1107C159.121 52.6141 152.447 45.5931 143.922 44.9843C143.729 44.9694 143.613 45.1745 143.649 45.3433C145.34 52.9946 151.059 59.7542 158.576 62.191C159.724 64.6791 160.641 67.2665 161.412 69.9763C161.461 70.1533 161.572 70.2558 161.701 70.3005C161.61 72.0888 161.518 73.8755 161.493 75.6671C161.483 76.3107 162.464 76.3074 162.49 75.6671C162.593 73.2386 162.7 70.8216 162.772 68.4096C162.772 68.408 162.773 68.4063 162.775 68.4046C164.906 65.1241 167.432 62.1877 170.259 59.5507C180.061 59.4448 188.088 52.351 194.03 45.163C194.177 44.986 194.096 44.7643 193.952 44.665" fill="#DE0351"/>
<path d="M224.61 129.333C224.965 127.194 225.45 125.07 226.049 122.966C227.89 116.496 230.706 110.411 233.11 104.146C233.164 104.115 233.217 104.08 233.274 104.048C233.313 104.027 233.343 104 233.368 103.969C233.452 103.966 233.535 103.961 233.618 103.954C233.298 113.16 231.525 122.81 224.61 129.333ZM223.434 130.023C222.11 125.548 221.763 120.969 223.185 116.418C224.742 111.435 228.132 107.18 232.569 104.467C228.539 112.299 224.795 121.073 223.434 130.023ZM222.6 129.725C218.792 125.672 216.633 120.479 216.037 114.931C215.488 109.812 216.179 104.685 217.251 99.676C217.418 102.197 217.763 104.718 218.022 107.226C218.312 110.045 218.601 112.866 218.922 115.683C219.475 120.552 220.318 125.353 222.6 129.725V129.725ZM217.438 98.8141C220.59 103.433 222.539 108.588 223.419 114.123C223.422 114.138 223.427 114.151 223.43 114.166C223.147 114.835 222.896 115.521 222.684 116.221C221.45 120.291 221.351 124.995 222.759 129.092C220.471 124.795 219.794 119.811 219.26 115.031C218.656 109.657 218.327 104.182 217.432 98.8438C217.433 98.8339 217.437 98.824 217.438 98.8141ZM214.773 130.284C209.855 125.143 204.362 120.749 198.301 117.018C195.085 115.04 191.7 113.362 188.19 111.976C188.188 111.969 188.183 111.963 188.181 111.956C194.046 110.81 199.555 112.757 204.31 116.28C206.928 118.221 209.466 120.486 211.311 123.194C212.796 125.376 213.829 127.821 214.773 130.284V130.284ZM199.093 124.514C194.291 121.637 190.499 117.28 188.271 112.155C198.069 116.398 206.571 123.06 213.903 130.791C208.985 128.671 203.692 127.269 199.093 124.514ZM195.465 135.122C195.666 134.993 195.867 134.867 196.071 134.748C200.964 134.508 205.923 135.256 210.588 136.703C212.69 137.355 214.676 138.166 216.585 139.112C209.335 141.11 201.421 139.805 195.465 135.122V135.122ZM215.625 137.415C209.587 134.893 202.854 133.978 196.384 134.567C202.698 131.05 210.608 132.233 215.625 137.415ZM233.879 103.628C233.841 103.562 233.773 103.516 233.677 103.527C233.571 103.54 233.465 103.555 233.36 103.572C233.29 103.484 233.179 103.441 233.049 103.514C229.096 105.731 225.841 109.13 223.87 113.198C223.053 107.655 220.802 102.321 217.544 97.7785C217.359 97.5187 216.998 97.6825 216.942 97.9472C215.695 103.78 214.801 109.819 215.61 115.778C216.373 121.407 218.767 127.189 223.326 130.777C222.899 133.883 222.765 137.009 223.015 140.119C220.788 137.176 218.484 134.301 215.971 131.562C214.803 128.397 213.572 125.204 211.585 122.448C209.61 119.708 206.93 117.377 204.185 115.433C199.563 112.156 193.321 109.8 187.698 111.779C187.697 111.779 187.693 111.777 187.69 111.776C187.655 111.763 187.629 111.782 187.619 111.807C187.606 111.81 187.594 111.815 187.581 111.819C187.468 111.86 187.492 112.029 187.589 112.062C187.593 112.09 187.599 112.12 187.612 112.151C189.834 117.341 193.583 121.824 198.39 124.809C200.888 126.36 203.636 127.417 206.371 128.471C209.105 129.527 211.838 130.67 214.636 131.57C216.672 133.762 218.621 136.033 220.479 138.358C221.291 139.373 222.065 140.415 222.828 141.468C220.975 140.103 218.988 138.943 216.906 137.979C211.461 131.451 201.873 130.074 194.804 134.878C194.645 134.986 194.68 135.219 194.812 135.328C200.88 140.286 209.557 142.048 216.968 139.304C219.41 140.545 221.735 142.01 224.018 143.66C224.166 143.767 224.317 143.779 224.446 143.732C225.482 145.193 226.516 146.654 227.607 148.075C228.001 148.586 228.767 147.976 228.39 147.456C226.969 145.488 225.553 143.524 224.114 141.587V141.582C223.753 137.684 223.917 133.815 224.504 129.992C232.132 123.836 234.036 113.296 234.248 103.971C234.253 103.742 234.054 103.618 233.879 103.628" fill="#DE0351"/>
<path d="M135.079 107.627C135.082 107.619 135.087 107.611 135.09 107.604C137.883 101.289 140.282 94.6539 141.691 87.8827C142.353 84.7048 142.745 81.411 142.252 78.1933C145.958 88.518 143.087 100.199 135.079 107.627ZM135.095 92.0202C136.612 87.0589 139.349 82.7212 141.81 78.2115C142.067 84.4947 140.244 90.6157 138.287 96.5398C137.044 100.294 135.612 103.988 133.994 107.597C133.641 102.353 133.537 97.1155 135.095 92.0202ZM122.526 104.757C123.087 100.475 124.888 96.4803 125.993 92.3279C126.235 94.7664 126.625 97.1751 126.782 99.6235C126.953 102.259 126.971 104.904 126.892 107.543C126.817 110.038 126.678 112.527 126.483 115.015C126.402 116.059 126.284 117.108 126.17 118.16C123.768 113.983 121.877 109.718 122.526 104.757V104.757ZM130.864 104.686C130.885 108.833 129.17 112.633 127.409 116.304C127.439 115.839 127.469 115.376 127.504 114.914C127.696 112.296 127.843 109.672 127.861 107.045C127.894 102.459 127.797 97.501 126.534 93.031C128.976 96.4422 130.84 100.441 130.864 104.686V104.686ZM142.011 76.754C141.91 76.6713 141.759 76.6598 141.675 76.8086C140.854 78.2744 140.027 79.7567 139.292 81.2737C137.226 84.7048 135.454 88.3592 134.326 92.1426C132.7 97.5986 132.988 103.253 133.42 108.858C132.356 111.154 131.221 113.417 130.01 115.637C129.07 117.358 128.086 119.052 127.062 120.723C127.176 119.717 127.252 118.701 127.32 117.689C127.338 117.669 127.356 117.647 127.371 117.619C129.492 113.5 131.621 109.05 131.446 104.302C131.269 99.5458 128.93 95.2313 126.086 91.5388C125.97 91.3882 125.681 91.4197 125.629 91.6165C124.46 96.156 122.403 100.507 121.93 105.21C121.429 110.181 123.381 114.63 126.117 118.655C125.977 119.995 125.854 121.337 125.833 122.67C125.833 122.672 125.834 122.673 125.834 122.675C125.203 123.659 124.559 124.637 123.897 125.603C123.533 126.139 124.357 126.721 124.724 126.184C128.427 120.764 131.681 115.044 134.422 109.081C143.766 101.251 147.041 88.202 142.389 76.8963C142.317 76.7193 142.146 76.6945 142.011 76.754Z" fill="#DE0351"/>
<path d="M201.032 88.7303C207.541 83.0808 214.328 76.8936 223.273 76.0499C220.305 79.1435 217.768 82.8574 214.163 85.2198C210.285 87.7625 205.56 88.4094 201.061 89.0148C201.052 88.9205 201.041 88.8262 201.032 88.7303ZM202.353 74.2698C203.871 68.4846 206.502 63.2503 209.071 57.9068C209.359 63.3645 210.321 69.1976 208.728 74.4964C207.206 79.5653 203.668 83.5738 200.978 88.0305C200.665 83.405 201.165 78.7944 202.353 74.2698ZM196.096 71.249C196.953 68.0644 199.199 66.0527 201.615 63.9799C203.828 62.0774 206.111 60.2278 208.273 58.2575C205.271 63.199 202.894 68.7046 201.413 74.2533C200.247 78.6257 199.671 83.2412 200.041 87.7708C197.274 82.6738 194.494 77.1781 196.096 71.249ZM221.907 75.6032C214.148 76.829 207.699 81.9475 202.091 87.296C203.309 85.6251 204.445 83.8732 205.557 82.1543C206.378 80.8855 207.158 79.5819 207.833 78.2303C212.047 75.9208 217.119 74.8687 221.907 75.6032ZM201.363 91.5129C201.271 90.9124 201.196 90.3135 201.132 89.713C205.608 89.1191 210.278 88.4458 214.181 86.0172C216.125 84.8079 217.734 83.1734 219.242 81.4678C220.803 79.7026 222.35 77.8928 223.771 76.0085C223.809 76.0052 223.844 76.0019 223.882 75.9986C224.158 75.9804 224.259 75.628 224.092 75.4626C224.069 75.4146 224.016 75.3848 223.96 75.3914C223.951 75.3914 223.947 75.3881 223.938 75.3865C218.524 74.4055 213.139 74.9382 208.227 77.4147C208.616 76.566 208.963 75.6991 209.244 74.8041C210.07 72.1738 210.202 69.4243 210.138 66.6864C210.062 63.5018 209.885 60.3073 209.671 57.1276C209.668 57.0747 209.653 57.0284 209.632 56.9887C209.643 56.9787 209.655 56.9672 209.666 56.9556C209.741 56.8844 209.683 56.7753 209.605 56.7471C209.6 56.5916 209.372 56.5122 209.268 56.6743C209.155 56.8464 209.046 57.0218 208.933 57.1955C205.951 59.4602 203.133 61.9798 200.271 64.3918C198.01 66.2976 196.202 68.3539 195.442 71.2738C193.788 77.6529 196.991 83.9973 200.207 89.3341C200.309 90.1084 200.44 90.8776 200.602 91.6419C200.693 92.0687 201.433 91.9496 201.363 91.5129" fill="#DE0351"/>
<path d="M113.735 4.83216C118.274 12.1575 123.298 19.8452 122.703 28.8133C120.125 25.3889 116.863 22.292 115.106 18.3546C113.215 14.1212 113.329 9.35344 113.45 4.81561C113.545 4.82223 113.64 4.82554 113.735 4.83216ZM127.798 8.44356C133.267 10.8638 138.015 14.2966 142.882 17.688C137.446 17.099 131.535 17.1189 126.557 14.7019C121.798 12.3891 118.407 8.25497 114.436 4.89006C119.05 5.32018 123.523 6.54935 127.798 8.44356V8.44356ZM131.782 2.7477C134.788 4.10425 136.416 6.64034 138.077 9.35509C139.6 11.8465 141.063 14.3942 142.662 16.8426C138.265 13.0889 133.208 9.86463 127.967 7.51879C123.836 5.66925 119.371 4.36398 114.84 4.0083C120.314 2.08762 126.184 0.221543 131.782 2.7477V2.7477ZM123.363 27.5345C123.391 19.6781 119.368 12.4967 114.98 6.10765C116.438 7.57504 117.985 8.97791 119.505 10.3493C120.628 11.3618 121.79 12.3395 123.016 13.2229C124.624 17.7492 124.854 22.9256 123.363 27.5345V27.5345ZM110.936 4.71636C111.543 4.71966 112.147 4.74117 112.749 4.7726C112.621 9.28727 112.542 14.0054 114.315 18.2455C115.199 20.3564 116.557 22.2059 118 23.9661C119.493 25.7909 121.034 27.6057 122.666 29.3113C122.663 29.3477 122.662 29.3841 122.658 29.4205C122.632 29.6984 122.966 29.8522 123.155 29.7133C123.206 29.6984 123.244 29.6504 123.245 29.5942C123.247 29.5875 123.25 29.5809 123.254 29.5727C125.085 24.3863 125.419 18.9849 123.758 13.7391C124.534 14.2602 125.333 14.7416 126.172 15.1618C128.637 16.3959 131.33 16.9634 134.045 17.3372C137.201 17.7707 140.383 18.1065 143.554 18.4026C143.609 18.4076 143.655 18.401 143.698 18.3844C143.708 18.3993 143.718 18.4125 143.724 18.4258C143.784 18.5085 143.901 18.4721 143.94 18.3977C144.097 18.4175 144.209 18.2058 144.067 18.0767C143.916 17.9378 143.761 17.8021 143.605 17.6648C141.847 14.3578 139.809 11.1732 137.883 7.9638C136.363 5.42772 134.621 3.31514 131.861 2.10086C125.826 -0.552685 119.052 1.59794 113.27 3.92228C112.491 3.89912 111.71 3.90408 110.929 3.94378C110.494 3.96529 110.494 4.7147 110.936 4.71636Z" fill="#DE0351"/>
<path d="M236.039 44.5882C238.552 49.0863 239.587 54.4397 238.461 59.4788C237.227 55.2437 235.652 51.0881 233.41 47.3261C231.731 44.5121 229.719 41.9065 227.679 39.3473C225.727 36.8972 223.767 34.4422 221.742 32.0467C227.542 34.7797 232.877 38.9287 236.039 44.5882ZM225.284 48.1285C222.908 43.1622 222.121 37.5987 221.449 32.1758C225.226 37.3737 229.466 42.2821 232.659 47.877C235.058 52.084 236.48 56.5953 237.786 61.1828C233.091 57.2951 227.989 53.783 225.284 48.1285V48.1285ZM221.155 31.1104C220.938 31.0111 220.721 31.2245 220.746 31.4379C221.424 37.2992 222.161 43.3623 224.836 48.7075C227.668 54.3719 232.95 58.1272 237.956 61.7916C238.315 63.0604 238.667 64.3359 239.033 65.6098C239.185 66.1491 240.108 65.8877 239.981 65.3385C239.627 63.8297 239.25 62.3127 238.835 60.8023C240.408 55.2834 239.412 49.3097 236.631 44.3334C233.221 38.229 227.423 33.9575 221.155 31.1104" fill="#DE0351"/>
<path d="M167.361 118.698C169.874 123.196 170.91 128.55 169.783 133.589C168.549 129.354 166.974 125.198 164.732 121.436C163.053 118.622 161.041 116.017 159.002 113.457C157.05 111.007 155.089 108.552 153.064 106.157C158.864 108.89 164.2 113.039 167.361 118.698ZM156.606 122.239C154.231 117.272 153.443 111.709 152.771 106.286C156.548 111.484 160.788 116.392 163.981 121.987C166.38 126.194 167.803 130.705 169.108 135.293C164.413 131.405 159.311 127.893 156.606 122.239V122.239ZM152.477 105.22C152.26 105.121 152.044 105.335 152.068 105.548C152.747 111.409 153.483 117.472 156.158 122.818C158.99 128.482 164.272 132.237 169.278 135.9C169.637 137.171 169.99 138.444 170.355 139.72C170.508 140.258 171.431 139.998 171.303 139.449C170.949 137.94 170.572 136.423 170.157 134.912C171.73 129.394 170.734 123.42 167.953 118.444C164.544 112.337 158.745 108.068 152.477 105.22" fill="#DE0351"/>
<path d="M306.483 59.099C308.087 57.6399 309.783 56.2718 311.556 54.9913C317.012 51.0557 322.991 48.0216 328.758 44.5955C328.821 44.6038 328.886 44.6104 328.948 44.6203C328.991 44.627 329.034 44.6253 329.071 44.617C329.139 44.6634 329.208 44.7113 329.278 44.7593C323.324 51.7869 315.952 58.2636 306.483 59.099ZM305.133 58.9104C306.865 54.5794 309.431 50.7695 313.366 48.0779C317.676 45.1315 322.973 43.8941 328.134 44.5112C320.119 48.1606 311.747 52.7299 305.133 58.9104ZM304.661 58.1627C304.183 52.619 305.707 47.2061 308.676 42.483C311.417 38.1238 315.136 34.5289 319.08 31.26C317.651 33.3428 316.359 35.5348 315.007 37.6639C313.489 40.0577 311.967 42.4499 310.474 44.8586C307.892 49.0242 305.581 53.3155 304.661 58.1627V58.1627ZM319.762 30.6992C319.375 36.2776 317.709 41.5334 314.973 46.4219C314.964 46.4368 314.959 46.45 314.954 46.4633C314.316 46.8123 313.695 47.1961 313.095 47.613C309.604 50.0432 306.612 53.6761 305.179 57.7607C306.046 52.9731 308.602 48.6404 311.143 44.5575C314.002 39.9667 317.133 35.4636 319.739 30.719C319.747 30.7124 319.754 30.7058 319.762 30.6992ZM298.173 53.7506C297.496 46.6684 295.908 39.8145 293.461 33.131C292.164 29.5858 290.546 26.1729 288.651 22.9106L288.656 22.8874C293.971 25.622 297.086 30.5635 298.636 36.2759C299.488 39.4224 300.077 42.7708 299.847 46.0381C299.662 48.6735 298.957 51.2327 298.173 53.7506V53.7506ZM289.44 39.5068C287.451 34.2725 287.175 28.5039 288.601 23.1008C293.663 32.5007 296.209 42.9975 297.175 53.61C294.628 48.8968 291.344 44.5194 289.44 39.5068V39.5068ZM280.02 45.5848C280.257 45.608 280.493 45.6345 280.728 45.6659C284.717 48.5113 288.144 52.1691 290.91 56.1973C292.156 58.0105 293.213 59.8766 294.125 61.8039C287.196 58.879 281.792 52.9516 280.02 45.5848V45.5848ZM294.424 59.8749C291.245 54.1559 286.526 49.2641 281.084 45.7188C288.22 46.8702 293.695 52.6984 294.424 59.8749ZM329.683 44.665C329.694 44.5889 329.671 44.5112 329.589 44.4615C329.496 44.4053 329.403 44.3507 329.312 44.2994C329.312 44.1869 329.249 44.0843 329.102 44.0612C324.627 43.3515 319.965 44.0033 315.899 45.9752C318.692 41.1181 320.228 35.5364 320.488 29.9531C320.503 29.6338 320.119 29.5395 319.909 29.7132C315.318 33.5181 310.873 37.7053 307.816 42.8816C304.928 47.7735 303.224 53.7936 304.58 59.4349C302.32 61.6103 300.279 63.981 298.547 66.5783C298.625 62.8891 298.595 59.2033 298.32 55.4959C299.364 52.2865 300.378 49.0192 300.524 45.6245C300.671 42.2497 300.013 38.7624 299.065 35.5331C297.466 30.0986 294.025 24.3813 288.386 22.4507C288.384 22.4474 288.383 22.4457 288.381 22.4424C288.363 22.411 288.33 22.4093 288.306 22.4226C288.293 22.4176 288.282 22.4126 288.268 22.4093C288.154 22.3713 288.07 22.5185 288.124 22.6045C288.11 22.6293 288.096 22.6558 288.086 22.6889C286.614 28.1399 286.781 33.9814 288.705 39.3017C289.704 42.0677 291.208 44.6005 292.699 47.1217C294.193 49.6445 295.629 52.2352 297.268 54.6737C297.51 57.6565 297.63 60.6475 297.648 63.622C297.657 64.9239 297.619 66.2226 297.564 67.5196C296.957 65.3011 296.113 63.1588 295.078 61.1107C294.851 52.6141 288.177 45.5931 279.651 44.9843C279.459 44.9694 279.343 45.1745 279.38 45.3433C281.07 52.9946 286.789 59.7542 294.307 62.191C295.455 64.6791 296.371 67.2665 297.141 69.9763C297.192 70.1533 297.303 70.2558 297.432 70.3005C297.341 72.0888 297.248 73.8755 297.223 75.6671C297.213 76.3107 298.193 76.3074 298.221 75.6671C298.323 73.2386 298.431 70.8216 298.502 68.4096C298.502 68.408 298.504 68.4063 298.505 68.4046C300.635 65.1241 303.162 62.1877 305.99 59.5507C315.792 59.4448 323.818 52.351 329.761 45.163C329.906 44.986 329.827 44.7643 329.683 44.665" fill="#DE0351"/>
<path d="M270.813 107.627C270.817 107.619 270.82 107.611 270.825 107.604C273.617 101.289 276.014 94.6539 277.424 87.8827C278.086 84.7048 278.479 81.411 277.986 78.1933C281.692 88.518 278.82 100.199 270.813 107.627ZM270.83 92.0202C272.347 87.0589 275.083 82.7212 277.545 78.2115C277.801 84.4947 275.978 90.6157 274.019 96.5398C272.779 100.294 271.346 103.988 269.728 107.597C269.374 102.353 269.271 97.1155 270.83 92.0202ZM258.26 104.757C258.821 100.475 260.623 96.4803 261.726 92.3279C261.968 94.7664 262.36 97.1751 262.517 99.6235C262.687 102.259 262.704 104.904 262.626 107.543C262.552 110.038 262.413 112.527 262.217 115.015C262.136 116.059 262.019 117.108 261.905 118.16C259.503 113.983 257.612 109.718 258.26 104.757V104.757ZM266.596 104.686C266.62 108.833 264.904 112.633 263.144 116.304C263.174 115.839 263.203 115.376 263.238 114.914C263.43 112.296 263.577 109.672 263.595 107.045C263.627 102.459 263.531 97.501 262.269 93.031C264.71 96.4422 266.575 100.441 266.596 104.686V104.686ZM277.745 76.754C277.644 76.6713 277.493 76.6598 277.409 76.8086C276.589 78.2744 275.761 79.7567 275.027 81.2737C272.961 84.7048 271.189 88.3592 270.059 92.1426C268.433 97.5986 268.722 103.253 269.154 108.858C268.09 111.154 266.955 113.417 265.744 115.637C264.805 117.358 263.82 119.052 262.796 120.723C262.911 119.717 262.987 118.701 263.054 117.689C263.073 117.669 263.091 117.647 263.106 117.619C265.227 113.5 267.354 109.05 267.18 104.302C267.003 99.5458 264.664 95.2313 261.82 91.5388C261.705 91.3882 261.413 91.4197 261.364 91.6165C260.194 96.156 258.138 100.507 257.665 105.21C257.163 110.181 259.115 114.63 261.852 118.655C261.711 119.995 261.587 121.337 261.567 122.67V122.675C260.935 123.659 260.292 124.637 259.632 125.603C259.266 126.139 260.092 126.721 260.459 126.184C264.16 120.764 267.414 115.044 270.156 109.081C279.5 101.251 282.776 88.202 278.124 76.8963C278.051 76.7193 277.881 76.6945 277.745 76.754Z" fill="#DE0351"/>
<path d="M249.465 4.83216C254.004 12.1575 259.028 19.8452 258.435 28.8133C255.854 25.3889 252.595 22.292 250.836 18.3546C248.947 14.1212 249.061 9.35344 249.18 4.81561C249.276 4.82223 249.371 4.82554 249.465 4.83216ZM263.53 8.44356C268.999 10.8638 273.747 14.2966 278.612 17.688C273.178 17.099 267.267 17.1189 262.289 14.7019C257.528 12.3891 254.135 8.25497 250.166 4.89006C254.782 5.32018 259.253 6.54935 263.53 8.44356V8.44356ZM267.512 2.7477C270.518 4.10425 272.147 6.64034 273.808 9.35509C275.33 11.8465 276.794 14.3942 278.392 16.8426C273.994 13.0889 268.938 9.86463 263.697 7.51879C259.566 5.66925 255.101 4.36398 250.57 4.0083C256.044 2.08762 261.912 0.221543 267.512 2.7477V2.7477ZM259.093 27.5345C259.123 19.6781 255.098 12.4967 250.712 6.10765C252.168 7.57504 253.715 8.97791 255.235 10.3493C256.357 11.3618 257.52 12.3395 258.746 13.2229C260.354 17.7492 260.585 22.9256 259.093 27.5345ZM246.667 4.71636C247.274 4.71966 247.877 4.74117 248.479 4.7726C248.351 9.28727 248.272 14.0054 250.047 18.2455C250.929 20.3564 252.287 22.2059 253.73 23.9661C255.224 25.7909 256.764 27.6057 258.397 29.3113C258.393 29.3477 258.392 29.3841 258.39 29.4205C258.363 29.6984 258.694 29.8522 258.883 29.7133C258.936 29.6984 258.974 29.6504 258.976 29.5942C258.979 29.5875 258.982 29.5809 258.985 29.5727C260.815 24.3863 261.149 18.9849 259.488 13.7391C260.263 14.2602 261.065 14.7416 261.904 15.1618C264.369 16.3959 267.062 16.9634 269.775 17.3372C272.931 17.7707 276.113 18.1065 279.284 18.4026C279.34 18.4076 279.387 18.401 279.428 18.3844C279.438 18.3993 279.446 18.4125 279.456 18.4258C279.514 18.5085 279.632 18.4721 279.671 18.3977C279.828 18.4175 279.941 18.2058 279.799 18.0767C279.646 17.9378 279.489 17.8021 279.337 17.6648C277.577 14.3578 275.54 11.1732 273.615 7.9638C272.094 5.42772 270.352 3.31514 267.59 2.10086C261.558 -0.552685 254.783 1.59794 249.002 3.92228C248.221 3.89912 247.44 3.90408 246.661 3.94378C246.224 3.96529 246.224 4.7147 246.667 4.71636Z" fill="#DE0351"/>
<path d="M303.094 118.698C305.607 123.196 306.641 128.55 305.516 133.589C304.281 129.354 302.707 125.198 300.463 121.436C298.786 118.622 296.774 116.017 294.734 113.457C292.781 111.007 290.82 108.552 288.797 106.157C294.597 108.89 299.932 113.039 303.094 118.698ZM292.339 122.239C289.963 117.272 289.176 111.709 288.502 106.286C292.281 111.484 296.521 116.392 299.712 121.987C302.113 126.194 303.535 130.705 304.839 135.293C300.146 131.405 295.044 127.893 292.339 122.239V122.239ZM288.21 105.22C287.993 105.121 287.775 105.335 287.801 105.548C288.478 111.409 289.215 117.472 291.891 122.818C294.723 128.482 300.003 132.237 305.011 135.9C305.37 137.171 305.722 138.444 306.088 139.72C306.24 140.258 307.163 139.998 307.036 139.449C306.682 137.94 306.305 136.423 305.888 134.912C307.461 129.394 306.467 123.42 303.686 118.444C300.275 112.337 294.478 108.068 288.21 105.22" fill="#DE0351"/>
<path d="M170.752 205.811C172.358 204.352 174.053 202.986 175.826 201.705C181.282 197.768 187.261 194.734 193.028 191.308C193.092 191.318 193.155 191.323 193.218 191.333C193.263 191.339 193.304 191.338 193.34 191.329C193.41 191.377 193.478 191.424 193.547 191.472C187.593 198.499 180.222 204.976 170.752 205.811ZM169.402 205.623C171.134 201.292 173.7 197.482 177.636 194.79C181.945 191.845 187.242 190.606 192.404 191.223C184.39 194.875 176.016 199.442 169.402 205.623ZM168.931 204.875C168.453 199.331 169.976 193.918 172.946 189.195C175.687 184.838 179.406 181.241 183.35 177.972C181.922 180.057 180.63 182.247 179.277 184.376C177.758 186.77 176.238 189.164 174.744 191.572C172.162 195.736 169.851 200.028 168.931 204.875V204.875ZM184.031 177.411C183.644 182.991 181.98 188.246 179.242 193.134C179.234 193.149 179.229 193.162 179.224 193.176C178.585 193.525 177.965 193.908 177.364 194.325C173.875 196.756 170.881 200.388 169.45 204.475C170.315 199.685 172.871 195.353 175.412 191.27C178.271 186.679 181.403 182.176 184.008 177.431C184.017 177.425 184.023 177.418 184.031 177.411ZM162.442 200.463C161.766 193.381 160.178 186.527 157.731 179.843C156.434 176.298 154.816 172.885 152.92 169.623C152.922 169.615 152.923 169.608 152.927 169.6C158.24 172.334 161.356 177.276 162.906 182.988C163.758 186.135 164.347 189.483 164.117 192.75C163.931 195.386 163.227 197.945 162.442 200.463V200.463ZM153.709 186.219C151.721 180.986 151.444 175.216 152.87 169.813C157.933 179.215 160.479 189.71 161.445 200.322C158.897 195.609 155.613 191.232 153.709 186.219V186.219ZM144.289 192.297C144.526 192.32 144.763 192.347 144.998 192.38C148.986 195.224 152.414 198.881 155.18 202.91C156.426 204.723 157.483 206.589 158.394 208.516C151.466 205.591 146.063 199.664 144.289 192.297V192.297ZM158.694 206.587C155.516 200.868 150.796 195.976 145.353 192.431C152.49 193.583 157.966 199.411 158.694 206.587ZM193.952 191.377C193.964 191.301 193.943 191.223 193.858 191.174C193.767 191.118 193.675 191.063 193.582 191.012C193.582 190.899 193.521 190.797 193.373 190.773C188.897 190.064 184.235 190.716 180.169 192.688C182.961 187.83 184.5 182.25 184.758 176.665C184.773 176.346 184.389 176.252 184.179 176.425C179.588 180.23 175.143 184.418 172.087 189.594C169.197 194.486 167.493 200.506 168.85 206.149C166.59 208.324 164.548 210.693 162.816 213.291C162.894 209.601 162.864 205.916 162.59 202.208C163.634 198.999 164.648 195.731 164.793 192.337C164.94 188.962 164.282 185.475 163.334 182.245C161.736 176.811 158.295 171.094 152.655 169.163C152.654 169.16 152.652 169.158 152.65 169.155C152.632 169.123 152.599 169.122 152.576 169.135C152.563 169.132 152.551 169.127 152.538 169.122C152.424 169.084 152.339 169.231 152.394 169.317C152.379 169.342 152.366 169.368 152.358 169.401C150.884 174.852 151.051 180.694 152.975 186.014C153.974 188.78 155.478 191.313 156.97 193.834C158.462 196.357 159.9 198.947 161.538 201.386C161.779 204.369 161.9 207.36 161.918 210.334C161.926 211.636 161.89 212.935 161.834 214.232C161.226 212.013 160.384 209.871 159.347 207.825C159.121 199.326 152.447 192.305 143.922 191.697C143.729 191.682 143.613 191.887 143.649 192.056C145.34 199.707 151.059 206.466 158.576 208.903C159.724 211.391 160.641 213.979 161.412 216.689C161.461 216.866 161.572 216.968 161.701 217.013C161.61 218.801 161.518 220.588 161.493 222.379C161.483 223.025 162.464 223.02 162.49 222.379C162.593 219.951 162.7 217.534 162.772 215.122C162.772 215.12 162.773 215.119 162.775 215.117C164.906 211.836 167.432 208.9 170.259 206.263C180.061 206.157 188.088 199.063 194.03 191.875C194.177 191.698 194.096 191.477 193.952 191.377Z" fill="#DE0351"/>
<path d="M224.61 276.044C224.965 273.905 225.45 271.781 226.049 269.677C227.89 263.206 230.706 257.122 233.11 250.859C233.164 250.827 233.217 250.792 233.274 250.761C233.313 250.739 233.343 250.711 233.368 250.682C233.452 250.677 233.535 250.672 233.618 250.665C233.298 259.873 231.525 269.523 224.61 276.044ZM223.434 276.734C222.11 272.261 221.763 267.68 223.185 263.129C224.742 258.148 228.132 253.893 232.569 251.179C228.539 259.009 224.795 267.786 223.434 276.734ZM222.6 276.438C218.792 272.383 216.633 267.19 216.037 261.643C215.488 256.523 216.179 251.396 217.251 246.387C217.418 248.908 217.763 251.429 218.022 253.939C218.312 256.758 218.601 259.579 218.922 262.394C219.475 267.263 220.318 272.065 222.6 276.438V276.438ZM217.438 245.525C220.59 250.144 222.539 255.3 223.419 260.836C223.422 260.849 223.427 260.864 223.43 260.877C223.147 261.547 222.896 262.232 222.684 262.932C221.45 267.003 221.351 271.708 222.759 275.803C220.471 271.506 219.794 266.523 219.26 261.744C218.656 256.367 218.327 250.893 217.432 245.556C217.433 245.545 217.437 245.535 217.438 245.525V245.525ZM214.773 276.995C209.855 271.855 204.362 267.461 198.301 263.731C195.085 261.751 191.7 260.075 188.19 258.688C188.188 258.682 188.183 258.674 188.181 258.667C194.046 257.521 199.555 259.468 204.31 262.991C206.928 264.934 209.466 267.198 211.311 269.905C212.796 272.087 213.829 274.534 214.773 276.995V276.995ZM199.093 271.227C194.291 268.35 190.499 263.992 188.271 258.867C198.069 263.11 206.571 269.771 213.903 277.503C208.985 275.384 203.692 273.981 199.093 271.227V271.227ZM195.465 281.834C195.666 281.704 195.867 281.579 196.071 281.459C200.964 281.22 205.923 281.967 210.588 283.414C212.69 284.068 214.676 284.878 216.585 285.824C209.335 287.821 201.421 286.516 195.465 281.834ZM215.625 284.127C209.587 281.606 202.854 280.691 196.384 281.278C202.698 277.761 210.608 278.944 215.625 284.127ZM233.879 250.339C233.841 250.275 233.773 250.228 233.677 250.238C233.571 250.253 233.465 250.266 233.36 250.283C233.29 250.195 233.179 250.154 233.049 250.227C229.096 252.443 225.841 255.843 223.87 259.909C223.053 254.367 220.802 249.034 217.544 244.489C217.359 244.231 216.998 244.393 216.942 244.66C215.695 250.491 214.801 256.531 215.61 262.49C216.373 268.12 218.767 273.9 223.326 277.488C222.899 280.595 222.765 283.722 223.015 286.832C220.788 283.887 218.484 281.014 215.971 278.274C214.803 275.109 213.572 271.916 211.585 269.16C209.61 266.421 206.93 264.09 204.185 262.146C199.563 258.869 193.321 256.513 187.698 258.492C187.697 258.49 187.693 258.49 187.69 258.488C187.655 258.475 187.629 258.493 187.619 258.518C187.606 258.523 187.594 258.526 187.581 258.531C187.468 258.571 187.492 258.74 187.589 258.775C187.593 258.803 187.599 258.832 187.612 258.862C189.834 264.053 193.583 268.537 198.39 271.521C200.888 273.071 203.636 274.13 206.371 275.182C209.105 276.238 211.838 277.382 214.636 278.282C216.672 280.473 218.621 282.746 220.479 285.068C221.291 286.084 222.065 287.128 222.828 288.18C220.975 286.815 218.988 285.656 216.906 284.691C211.461 278.162 201.873 276.785 194.804 281.591C194.645 281.699 194.68 281.932 194.812 282.039C200.88 286.997 209.557 288.761 216.968 286.016C219.41 287.257 221.735 288.721 224.018 290.371C224.166 290.48 224.317 290.49 224.446 290.445C225.482 291.906 226.516 293.367 227.607 294.786C228.001 295.299 228.767 294.688 228.39 294.169C226.969 292.199 225.553 290.237 224.114 288.298V288.293C223.753 284.397 223.917 280.527 224.504 276.704C232.132 270.548 234.036 260.009 234.248 250.683C234.253 250.453 234.054 250.329 233.879 250.339" fill="#DE0351"/>
<path d="M201.032 235.444C207.541 229.794 214.328 223.607 223.273 222.763C220.305 225.857 217.768 229.569 214.163 231.933C210.285 234.474 205.56 235.123 201.061 235.728C201.052 235.634 201.041 235.538 201.032 235.444ZM202.353 220.983C203.871 215.198 206.502 209.964 209.071 204.62C209.359 210.078 210.321 215.909 208.728 221.21C207.206 226.279 203.668 230.287 200.978 234.742C200.665 230.118 201.165 225.506 202.353 220.983ZM196.096 217.961C196.953 214.778 199.199 212.764 201.615 210.692C203.828 208.791 206.111 206.94 208.273 204.971C205.271 209.911 202.894 215.418 201.413 220.967C200.247 225.339 199.671 229.955 200.041 234.484C197.274 229.387 194.494 223.891 196.096 217.961ZM221.907 222.317C214.148 223.542 207.699 228.659 202.091 234.009C203.309 232.338 204.445 230.587 205.557 228.866C206.378 227.597 207.158 226.295 207.833 224.942C212.047 222.634 217.119 221.58 221.907 222.317ZM201.363 238.226C201.271 237.626 201.196 237.025 201.132 236.426C205.608 235.832 210.278 235.157 214.181 232.731C216.125 231.521 217.734 229.885 219.242 228.181C220.803 226.414 222.35 224.605 223.771 222.72C223.809 222.719 223.844 222.714 223.882 222.712C224.158 222.692 224.259 222.341 224.092 222.176C224.069 222.128 224.016 222.097 223.96 222.105C223.951 222.103 223.947 222.1 223.938 222.098C218.524 221.119 213.139 221.652 208.227 224.128C208.616 223.279 208.963 222.413 209.244 221.518C210.07 218.887 210.202 216.138 210.138 213.4C210.062 210.213 209.885 207.019 209.671 203.841C209.668 203.786 209.653 203.74 209.632 203.702L209.666 203.667C209.741 203.598 209.683 203.487 209.605 203.461C209.6 203.303 209.372 203.224 209.268 203.386C209.155 203.558 209.046 203.733 208.933 203.909C205.951 206.172 203.133 208.692 200.271 211.104C198.01 213.011 196.202 215.067 195.442 217.987C193.788 224.366 196.991 230.711 200.207 236.048C200.309 236.82 200.44 237.591 200.602 238.355C200.693 238.782 201.433 238.663 201.363 238.226" fill="#DE0351"/>
<path d="M236.039 191.302C238.552 195.798 239.587 201.152 238.461 206.192C237.227 201.957 235.652 197.8 233.41 194.04C231.731 191.224 229.719 188.618 227.679 186.061C225.727 183.609 223.767 181.154 221.742 178.76C227.542 181.493 232.877 185.642 236.039 191.302ZM225.284 194.842C222.908 189.874 222.121 184.311 221.449 178.889C225.226 184.087 229.466 188.996 232.659 194.591C235.058 198.798 236.48 203.309 237.786 207.895C233.091 204.009 227.989 200.497 225.284 194.842V194.842ZM221.155 177.824C220.938 177.725 220.721 177.938 220.746 178.152C221.424 184.013 222.161 190.074 224.836 195.421C227.668 201.086 232.95 204.841 237.956 208.504C238.315 209.774 238.667 211.048 239.033 212.323C239.185 212.861 240.108 212.601 239.981 212.052C239.627 210.543 239.25 209.026 238.835 207.516C240.408 201.997 239.412 196.023 236.631 191.047C233.221 184.941 227.423 180.669 221.155 177.824" fill="#DE0351"/>
<path d="M306.483 205.811C308.087 204.352 309.783 202.986 311.556 201.705C317.012 197.768 322.991 194.734 328.758 191.308C328.821 191.318 328.886 191.323 328.948 191.333C328.991 191.339 329.034 191.338 329.071 191.329C329.139 191.377 329.208 191.424 329.278 191.472C323.324 198.499 315.952 204.976 306.483 205.811ZM305.133 205.623C306.865 201.292 309.431 197.482 313.366 194.79C317.676 191.845 322.973 190.606 328.134 191.223C320.119 194.875 311.747 199.442 305.133 205.623ZM304.661 204.875C304.183 199.331 305.707 193.918 308.676 189.195C311.417 184.838 315.136 181.241 319.08 177.972C317.651 180.057 316.359 182.247 315.007 184.376C313.489 186.77 311.967 189.164 310.474 191.572C307.892 195.736 305.581 200.028 304.661 204.875V204.875ZM319.762 177.411C319.375 182.991 317.709 188.246 314.973 193.134C314.964 193.149 314.959 193.162 314.954 193.176C314.316 193.525 313.695 193.908 313.095 194.325C309.604 196.756 306.612 200.388 305.179 204.475C306.046 199.685 308.602 195.353 311.143 191.27C314.002 186.679 317.133 182.176 319.739 177.431C319.747 177.425 319.754 177.418 319.762 177.411ZM298.173 200.463C297.496 193.381 295.908 186.527 293.461 179.843C292.164 176.298 290.546 172.885 288.651 169.623L288.656 169.6C293.971 172.334 297.086 177.276 298.636 182.988C299.488 186.135 300.077 189.483 299.847 192.75C299.662 195.386 298.957 197.945 298.173 200.463V200.463ZM289.44 186.219C287.451 180.986 287.175 175.216 288.601 169.813C293.663 179.215 296.209 189.71 297.175 200.322C294.628 195.609 291.344 191.232 289.44 186.219V186.219ZM280.02 192.297C280.257 192.32 280.493 192.347 280.728 192.38C284.717 195.224 288.144 198.881 290.91 202.91C292.156 204.723 293.213 206.589 294.125 208.516C287.196 205.591 281.792 199.664 280.02 192.297V192.297ZM294.424 206.587C291.245 200.868 286.526 195.976 281.084 192.431C288.22 193.583 293.695 199.411 294.424 206.587ZM329.683 191.377C329.694 191.301 329.671 191.223 329.589 191.174C329.496 191.118 329.403 191.063 329.312 191.012C329.312 190.899 329.249 190.797 329.102 190.773C324.627 190.064 319.965 190.716 315.899 192.688C318.692 187.83 320.228 182.25 320.488 176.665C320.503 176.346 320.119 176.252 319.909 176.425C315.318 180.23 310.873 184.418 307.816 189.594C304.928 194.486 303.224 200.506 304.58 206.149C302.32 208.324 300.279 210.693 298.547 213.291C298.625 209.601 298.595 205.916 298.32 202.208C299.364 198.999 300.378 195.731 300.524 192.337C300.671 188.962 300.013 185.475 299.065 182.245C297.466 176.811 294.025 171.094 288.386 169.163C288.384 169.16 288.383 169.158 288.381 169.155C288.363 169.123 288.33 169.122 288.306 169.135C288.293 169.132 288.282 169.127 288.268 169.122C288.154 169.084 288.07 169.231 288.124 169.317C288.11 169.342 288.096 169.368 288.086 169.401C286.614 174.852 286.781 180.694 288.705 186.014C289.704 188.78 291.208 191.313 292.699 193.834C294.193 196.357 295.629 198.947 297.268 201.386C297.51 204.369 297.63 207.36 297.648 210.334C297.657 211.636 297.619 212.935 297.564 214.232C296.957 212.013 296.113 209.871 295.078 207.825C294.851 199.326 288.177 192.305 279.651 191.697C279.459 191.682 279.343 191.887 279.38 192.056C281.07 199.707 286.789 206.466 294.307 208.903C295.455 211.391 296.371 213.979 297.141 216.689C297.192 216.866 297.303 216.968 297.432 217.013C297.341 218.801 297.248 220.588 297.223 222.379C297.213 223.025 298.193 223.02 298.221 222.379C298.323 219.951 298.431 217.534 298.502 215.122C298.502 215.12 298.504 215.119 298.505 215.117C300.635 211.836 303.162 208.9 305.99 206.263C315.792 206.157 323.818 199.063 329.761 191.875C329.906 191.698 329.827 191.477 329.683 191.377" fill="#DE0351"/>
<path d="M270.813 254.339C270.817 254.332 270.82 254.324 270.825 254.316C273.617 248.003 276.014 241.367 277.424 234.596C278.086 231.418 278.479 228.124 277.986 224.905C281.692 235.23 278.82 246.912 270.813 254.339ZM270.83 238.732C272.347 233.772 275.083 229.434 277.545 224.925C277.801 231.208 275.978 237.327 274.019 243.251C272.779 247.007 271.346 250.701 269.728 254.311C269.374 249.066 269.271 243.827 270.83 238.732ZM258.26 251.468C258.821 247.189 260.623 243.193 261.726 239.041C261.968 241.478 262.36 243.888 262.517 246.337C262.687 248.972 262.704 251.616 262.626 254.256C262.552 256.751 262.413 259.24 262.217 261.729C262.136 262.772 262.019 263.82 261.905 264.872C259.503 260.696 257.612 256.431 258.26 251.468V251.468ZM266.596 251.399C266.62 255.545 264.904 259.345 263.144 263.017C263.174 262.552 263.203 262.088 263.238 261.628C263.43 259.009 263.577 256.383 263.595 253.758C263.627 249.172 263.531 244.213 262.269 239.744C264.71 243.155 266.575 247.152 266.596 251.399V251.399ZM277.745 223.467C277.644 223.383 277.493 223.371 277.409 223.522C276.589 224.988 275.761 226.47 275.027 227.987C272.961 231.418 271.189 235.072 270.059 238.856C268.433 244.312 268.722 249.966 269.154 255.571C268.09 257.867 266.955 260.129 265.744 262.349C264.805 264.069 263.82 265.765 262.796 267.434C262.911 266.43 262.987 265.414 263.054 264.402C263.073 264.38 263.091 264.361 263.106 264.333C265.227 260.213 267.354 255.761 267.18 251.014C267.003 246.259 264.664 241.943 261.82 238.25C261.705 238.101 261.413 238.131 261.364 238.328C260.194 242.869 258.138 247.218 257.665 251.923C257.163 256.893 259.115 261.343 261.852 265.366C261.711 266.708 261.587 268.05 261.567 269.383V269.388C260.935 270.371 260.292 271.349 259.632 272.315C259.266 272.851 260.092 273.435 260.459 272.897C264.16 267.477 267.414 261.755 270.156 255.795C279.5 247.963 282.776 234.914 278.124 223.61C278.051 223.433 277.881 223.406 277.745 223.467" fill="#DE0351"/>
<path d="M249.465 151.544C254.004 158.87 259.028 166.559 258.435 175.526C255.854 172.101 252.595 169.004 250.836 165.067C248.947 160.833 249.061 156.066 249.18 151.528C249.276 151.534 249.371 151.538 249.465 151.544ZM263.53 155.156C268.999 157.576 273.747 161.009 278.612 164.4C273.178 163.811 267.267 163.831 262.289 161.414C257.528 159.101 254.135 154.969 250.166 151.602C254.782 152.032 259.253 153.262 263.53 155.156V155.156ZM267.512 149.46C270.518 150.816 272.147 153.353 273.808 156.067C275.33 158.559 276.794 161.106 278.392 163.555C273.994 159.801 268.938 156.577 263.697 154.231C259.566 152.381 255.101 151.076 250.57 150.721C256.044 148.8 261.912 146.934 267.512 149.46V149.46ZM259.093 174.247C259.123 166.392 255.098 159.209 250.712 152.82C252.168 154.287 253.715 155.69 255.235 157.062C256.357 158.074 257.52 159.052 258.746 159.935C260.354 164.461 260.585 169.638 259.093 174.247ZM246.667 151.429C247.274 151.432 247.877 151.453 248.479 151.486C248.351 155.999 248.272 160.718 250.047 164.958C250.929 167.07 252.287 168.92 253.73 170.678C255.224 172.503 256.764 174.32 258.397 176.023C258.393 176.06 258.392 176.096 258.39 176.133C258.363 176.411 258.694 176.564 258.883 176.427C258.936 176.411 258.974 176.363 258.976 176.308C258.979 176.3 258.982 176.293 258.985 176.285C260.815 171.099 261.149 165.697 259.488 160.451C260.263 160.972 261.065 161.454 261.904 161.874C264.369 163.108 267.062 163.677 269.775 164.049C272.931 164.483 276.113 164.819 279.284 165.115C279.34 165.12 279.387 165.113 279.428 165.098C279.438 165.112 279.446 165.125 279.456 165.138C279.514 165.222 279.632 165.184 279.671 165.11C279.828 165.13 279.941 164.918 279.799 164.789C279.646 164.65 279.489 164.514 279.337 164.377C277.577 161.07 275.54 157.885 273.615 154.678C272.094 152.14 270.352 150.027 267.59 148.813C261.558 146.161 254.783 148.31 249.002 150.634C248.221 150.611 247.44 150.616 246.661 150.656C246.224 150.677 246.224 151.427 246.667 151.429Z" fill="#DE0351"/>
<path d="M303.094 265.41C305.607 269.908 306.641 275.26 305.516 280.301C304.281 276.066 302.707 271.91 300.463 268.148C298.786 265.334 296.774 262.729 294.734 260.169C292.781 257.719 290.82 255.264 288.797 252.869C294.597 255.602 299.932 259.751 303.094 265.41ZM292.339 268.952C289.963 263.984 289.176 258.421 288.502 252.998C292.281 258.196 296.521 263.104 299.712 268.699C302.113 272.906 303.535 277.417 304.839 282.005C300.146 278.119 295.044 274.605 292.339 268.952V268.952ZM288.21 251.932C287.993 251.833 287.775 252.047 287.801 252.26C288.478 258.123 289.215 264.184 291.891 269.529C294.723 275.194 300.003 278.949 305.011 282.612C305.37 283.882 305.722 285.158 306.088 286.432C306.24 286.969 307.163 286.71 307.036 286.16C306.682 284.653 306.305 283.136 305.888 281.624C307.461 276.105 306.467 270.132 303.686 265.155C300.275 259.049 294.478 254.779 288.21 251.932" fill="#DE0351"/>
<path d="M80.9679 423.434C81.3236 421.295 81.8066 419.171 82.4072 417.067C84.2484 410.597 87.0624 404.512 89.4662 398.249C89.5208 398.217 89.5754 398.182 89.6316 398.151C89.6713 398.13 89.7011 398.101 89.7243 398.072C89.8086 398.067 89.893 398.062 89.9757 398.055C89.6548 407.263 87.8813 416.913 80.9679 423.434ZM79.7917 424.124C78.4682 419.651 78.1208 415.07 79.5435 410.519C81.1002 405.538 84.49 401.283 88.9252 398.57C84.8953 406.4 81.1532 415.176 79.7917 424.124ZM78.9579 423.828C75.1496 419.773 72.9907 414.58 72.3952 409.033C71.8459 403.913 72.5374 398.788 73.6078 393.777C73.7765 396.3 74.1206 398.819 74.3787 401.329C74.6699 404.148 74.9577 406.969 75.2787 409.784C75.8312 414.653 76.6766 419.456 78.9579 423.828V423.828ZM73.7964 392.915C76.9479 397.534 78.8967 402.691 79.7768 408.226C79.7801 408.239 79.785 408.254 79.7884 408.267C79.5055 408.937 79.254 409.622 79.0406 410.322C77.8081 414.393 77.7089 419.098 79.1167 423.193C76.8288 418.896 76.1521 413.914 75.6161 409.134C75.014 403.758 74.6848 398.283 73.7898 392.945C73.7914 392.935 73.7931 392.927 73.7964 392.915V392.915ZM71.1312 424.385C66.2129 419.245 60.7189 414.852 54.6591 411.121C51.4431 409.141 48.0583 407.465 44.5478 406.079C44.5445 406.07 44.5412 406.064 44.5396 406.057C50.4042 404.911 55.9131 406.858 60.6676 410.382C63.2864 412.324 65.8225 414.587 67.6671 417.295C69.1543 419.477 70.1866 421.924 71.1312 424.385V424.385ZM55.4515 418.617C50.6473 415.74 46.8573 411.382 44.6289 406.257C54.4275 410.501 62.9274 417.161 70.2611 424.893C65.3411 422.774 60.0506 421.371 55.4515 418.617V418.617ZM51.8236 429.224C52.0221 429.094 52.2256 428.97 52.4291 428.849C57.3226 428.611 62.2789 429.357 66.9458 430.804C69.0484 431.458 71.0336 432.268 72.9427 433.215C65.6935 435.211 57.7775 433.906 51.8236 429.224ZM71.9832 431.517C65.9449 428.996 59.2102 428.081 52.7417 428.668C59.0563 425.151 66.9656 426.334 71.9832 431.517ZM90.2354 397.731C90.1991 397.665 90.1312 397.618 90.0353 397.628C89.9294 397.642 89.8235 397.658 89.7176 397.673C89.6482 397.585 89.5357 397.544 89.4066 397.617C85.4528 399.832 82.1987 403.232 80.2284 407.3C79.4112 401.758 77.1596 396.424 73.9023 391.88C73.717 391.621 73.3563 391.784 73.3001 392.05C72.0527 397.881 71.1594 403.921 71.9667 409.88C72.7293 415.51 75.1231 421.29 79.6825 424.878C79.2573 427.985 79.1217 431.112 79.3731 434.222C77.1464 431.277 74.8403 428.404 72.329 425.664C71.161 422.499 69.9302 419.307 67.9417 416.551C65.9664 413.811 63.2881 411.48 60.5435 409.536C55.9213 406.259 49.6779 403.903 44.0565 405.882C44.0532 405.88 44.0499 405.88 44.0466 405.878C44.0135 405.865 43.987 405.883 43.9754 405.908C43.9638 405.913 43.9523 405.916 43.939 405.921C43.8249 405.961 43.8497 406.13 43.9473 406.165C43.9506 406.193 43.9556 406.223 43.9688 406.252C46.1906 411.444 49.9409 415.927 54.7484 418.911C57.2465 420.461 59.9943 421.52 62.7273 422.572C65.4635 423.628 68.1965 424.773 70.9923 425.672C73.0304 427.863 74.9792 430.136 76.8354 432.459C77.6493 433.474 78.4235 434.518 79.1845 435.57C77.3333 434.206 75.3448 433.046 73.2637 432.081C67.8193 425.552 58.2308 424.175 51.1618 428.979C51.003 429.089 51.0378 429.322 51.1701 429.429C57.2382 434.388 65.9151 436.151 73.3249 433.405C75.7683 434.647 78.091 436.111 80.374 437.761C80.5229 437.87 80.6751 437.88 80.8041 437.835C81.8381 439.296 82.8737 440.757 83.9655 442.176C84.3576 442.689 85.1236 442.078 84.748 441.559C83.3253 439.589 81.9109 437.627 80.4716 435.688C80.4716 435.686 80.4716 435.684 80.4716 435.683C80.111 431.787 80.2747 427.917 80.862 424.094C88.4885 417.939 90.3943 407.399 90.606 398.073C90.611 397.843 90.4108 397.719 90.2354 397.731" fill="#DE0351"/>
<path d="M170.752 353.201C172.358 351.742 174.053 350.374 175.826 349.095C181.282 345.158 187.261 342.125 193.028 338.696C193.092 338.706 193.155 338.713 193.218 338.723C193.263 338.729 193.304 338.727 193.34 338.718C193.41 338.766 193.478 338.815 193.547 338.861C187.593 345.889 180.222 352.366 170.752 353.201ZM169.402 353.014C171.134 348.683 173.7 344.872 177.636 342.18C181.945 339.235 187.242 337.996 192.404 338.615C184.39 342.264 176.016 346.832 169.402 353.014ZM168.931 352.265C168.453 346.721 169.976 341.31 172.946 336.585C175.687 332.226 179.406 328.629 183.35 325.362C181.922 327.447 180.63 329.637 179.277 331.766C177.758 334.16 176.238 336.554 174.744 338.962C172.162 343.126 169.851 347.418 168.931 352.265V352.265ZM184.031 324.801C183.644 330.38 181.98 335.636 179.242 340.526C179.234 340.539 179.229 340.552 179.224 340.564C178.585 340.915 177.965 341.298 177.364 341.717C173.875 344.145 170.881 347.778 169.45 351.863C170.315 347.075 172.871 342.744 175.412 338.661C178.271 334.069 181.403 329.566 184.008 324.823C184.017 324.815 184.023 324.808 184.031 324.801ZM162.442 347.854C161.766 340.771 160.178 333.918 157.731 327.235C156.434 323.688 154.816 320.277 152.92 317.013C152.922 317.004 152.923 316.998 152.927 316.99C158.24 319.724 161.356 324.667 162.906 330.378C163.758 333.525 164.347 336.873 164.117 340.14C163.931 342.776 163.227 345.335 162.442 347.854V347.854ZM153.709 333.609C151.721 328.375 151.444 322.606 152.87 317.201C157.933 326.605 160.479 337.1 161.445 347.712C158.897 343.001 155.613 338.622 153.709 333.609V333.609ZM144.289 339.687C144.526 339.71 144.763 339.737 144.998 339.77C148.986 342.614 152.414 346.271 155.18 350.298C156.426 352.113 157.483 353.979 158.394 355.906C151.466 352.98 146.063 347.052 144.289 339.687V339.687ZM158.694 353.979C155.516 348.258 150.796 343.368 145.353 339.821C152.49 340.971 157.966 346.802 158.694 353.979ZM193.952 338.766C193.964 338.691 193.943 338.613 193.858 338.564C193.767 338.507 193.675 338.455 193.582 338.402C193.582 338.289 193.521 338.187 193.373 338.163C188.897 337.454 184.235 338.105 180.169 340.077C182.961 335.222 184.5 329.64 184.758 324.055C184.773 323.736 184.389 323.642 184.179 323.815C179.588 327.62 175.143 331.806 172.087 336.984C169.197 341.876 167.493 347.897 168.85 353.537C166.59 355.714 164.548 358.083 162.816 360.68C162.894 356.99 162.864 353.305 162.59 349.598C163.634 346.39 164.648 343.121 164.793 339.727C164.94 336.352 164.282 332.863 163.334 329.637C161.736 324.202 158.295 318.485 152.655 316.553C152.654 316.551 152.652 316.548 152.65 316.545C152.632 316.513 152.599 316.511 152.576 316.525C152.563 316.52 152.551 316.515 152.538 316.511C152.424 316.473 152.339 316.621 152.394 316.705C152.379 316.732 152.366 316.758 152.358 316.789C150.884 322.24 151.051 328.084 152.975 333.404C153.974 336.17 155.478 338.703 156.97 341.224C158.462 343.747 159.9 346.337 161.538 348.776C161.779 351.76 161.9 354.75 161.918 357.724C161.926 359.026 161.89 360.325 161.834 361.622C161.226 359.403 160.384 357.261 159.347 355.215C159.121 346.716 152.447 339.695 143.922 339.086C143.729 339.073 143.613 339.277 143.649 339.445C145.34 347.097 151.059 353.856 158.576 356.293C159.724 358.781 160.641 361.369 161.412 364.078C161.461 364.257 161.572 364.358 161.701 364.403C161.61 366.191 161.518 367.979 161.493 369.769C161.483 370.413 162.464 370.408 162.49 369.769C162.593 367.342 162.7 364.925 162.772 362.512C162.772 362.51 162.773 362.51 162.775 362.508C164.906 359.226 167.432 356.29 170.259 353.651C180.061 353.547 188.088 346.453 194.03 339.265C194.177 339.088 194.096 338.868 193.952 338.766" fill="#DE0351"/>
<path d="M224.61 423.434C224.965 421.295 225.45 419.171 226.049 417.067C227.89 410.597 230.706 404.512 233.11 398.249C233.164 398.217 233.217 398.182 233.274 398.151C233.313 398.13 233.343 398.101 233.368 398.072C233.452 398.067 233.535 398.062 233.618 398.055C233.298 407.263 231.525 416.913 224.61 423.434ZM223.434 424.124C222.11 419.651 221.763 415.07 223.185 410.519C224.742 405.538 228.132 401.283 232.569 398.57C228.539 406.4 224.795 415.176 223.434 424.124ZM222.6 423.828C218.792 419.773 216.633 414.58 216.037 409.033C215.488 403.913 216.179 398.788 217.251 393.777C217.418 396.3 217.763 398.819 218.022 401.329C218.312 404.148 218.601 406.969 218.922 409.784C219.475 414.653 220.318 419.456 222.6 423.828V423.828ZM217.438 392.915C220.59 397.534 222.539 402.691 223.419 408.226C223.422 408.239 223.427 408.254 223.43 408.267C223.147 408.937 222.896 409.622 222.684 410.322C221.45 414.393 221.351 419.098 222.759 423.193C220.471 418.896 219.794 413.914 219.26 409.134C218.656 403.758 218.327 398.283 217.432 392.945C217.433 392.935 217.437 392.927 217.438 392.915V392.915ZM214.773 424.385C209.855 419.245 204.362 414.852 198.301 411.121C195.085 409.141 191.7 407.465 188.19 406.079C188.188 406.07 188.183 406.064 188.181 406.057C194.046 404.911 199.555 406.858 204.31 410.382C206.928 412.324 209.466 414.587 211.311 417.295C212.796 419.477 213.829 421.924 214.773 424.385V424.385ZM199.093 418.617C194.291 415.74 190.499 411.382 188.271 406.257C198.069 410.501 206.571 417.161 213.903 424.893C208.985 422.774 203.692 421.371 199.093 418.617V418.617ZM195.465 429.224C195.666 429.094 195.867 428.97 196.071 428.849C200.964 428.611 205.923 429.357 210.588 430.804C212.69 431.458 214.676 432.268 216.585 433.215C209.335 435.211 201.421 433.906 195.465 429.224ZM215.625 431.517C209.587 428.996 202.854 428.081 196.384 428.668C202.698 425.151 210.608 426.334 215.625 431.517ZM233.879 397.731C233.841 397.665 233.773 397.618 233.677 397.628C233.571 397.642 233.465 397.658 233.36 397.673C233.29 397.585 233.179 397.544 233.049 397.617C229.096 399.832 225.841 403.232 223.87 407.3C223.053 401.758 220.802 396.424 217.544 391.88C217.359 391.621 216.998 391.784 216.942 392.05C215.695 397.881 214.801 403.921 215.61 409.88C216.373 415.51 218.767 421.29 223.326 424.878C222.899 427.985 222.765 431.112 223.015 434.222C220.788 431.277 218.484 428.404 215.971 425.664C214.803 422.499 213.572 419.307 211.585 416.551C209.61 413.811 206.93 411.48 204.185 409.536C199.563 406.259 193.321 403.903 187.698 405.882C187.697 405.88 187.693 405.88 187.69 405.878C187.655 405.865 187.629 405.883 187.619 405.908C187.606 405.913 187.594 405.916 187.581 405.921C187.468 405.961 187.492 406.13 187.589 406.165C187.593 406.193 187.599 406.223 187.612 406.252C189.834 411.444 193.583 415.927 198.39 418.911C200.888 420.461 203.636 421.52 206.371 422.572C209.105 423.628 211.838 424.773 214.636 425.672C216.672 427.863 218.621 430.136 220.479 432.459C221.291 433.474 222.065 434.518 222.828 435.57C220.975 434.206 218.988 433.046 216.906 432.081C211.461 425.552 201.873 424.175 194.804 428.979C194.645 429.089 194.68 429.322 194.812 429.429C200.88 434.388 209.557 436.151 216.968 433.405C219.41 434.647 221.735 436.111 224.018 437.761C224.166 437.87 224.317 437.88 224.446 437.835C225.482 439.296 226.516 440.757 227.607 442.176C228.001 442.689 228.767 442.078 228.39 441.559C226.969 439.589 225.553 437.627 224.114 435.688V435.683C223.753 431.787 223.917 427.917 224.504 424.094C232.132 417.939 234.036 407.399 234.248 398.073C234.253 397.843 234.054 397.719 233.879 397.731" fill="#DE0351"/>
<path d="M135.079 401.729C135.082 401.722 135.087 401.714 135.09 401.706C137.883 395.393 140.282 388.756 141.691 381.984C142.353 378.808 142.745 375.514 142.252 372.297C145.958 382.62 143.087 394.303 135.079 401.729ZM135.095 386.122C136.612 381.161 139.349 376.825 141.81 372.315C142.067 378.598 140.244 384.719 138.287 390.642C137.044 394.395 135.612 398.091 133.994 401.701C133.641 396.455 133.537 391.217 135.095 386.122ZM122.526 398.859C123.087 394.579 124.888 390.584 125.993 386.431C126.235 388.87 126.625 391.278 126.782 393.727C126.953 396.362 126.971 399.006 126.892 401.646C126.817 404.139 126.678 406.631 126.483 409.119C126.402 410.161 126.284 411.21 126.17 412.262C123.768 408.086 121.877 403.822 122.526 398.859V398.859ZM130.864 398.789C130.885 402.935 129.17 406.735 127.409 410.407C127.439 409.943 127.469 409.478 127.504 409.016C127.696 406.397 127.843 403.774 127.861 401.148C127.894 396.562 127.797 391.604 126.534 387.134C128.976 390.546 130.84 394.542 130.864 398.789V398.789ZM142.011 370.857C141.91 370.773 141.759 370.761 141.675 370.912C140.854 372.378 140.027 373.858 139.292 375.375C137.226 378.808 135.454 382.463 134.326 386.246C132.7 391.702 132.988 397.356 133.42 402.961C132.356 405.258 131.221 407.519 130.01 409.739C129.07 411.46 128.086 413.155 127.062 414.825C127.176 413.82 127.252 412.805 127.32 411.792C127.338 411.771 127.356 411.751 127.371 411.721C129.492 407.603 131.621 403.152 131.446 398.404C131.269 393.647 128.93 389.335 126.086 385.64C125.97 385.492 125.681 385.521 125.629 385.718C124.46 390.259 122.403 394.609 121.93 399.314C121.429 404.283 123.381 408.733 126.117 412.757C125.977 414.098 125.854 415.44 125.833 416.773C125.833 416.775 125.834 416.777 125.834 416.778C125.203 417.761 124.559 418.739 123.897 419.705C123.533 420.241 124.357 420.825 124.724 420.287C128.427 414.868 131.681 409.145 134.422 403.185C143.766 395.353 147.041 382.304 142.389 371C142.317 370.823 142.146 370.798 142.011 370.857" fill="#DE0351"/>
<path d="M201.032 382.833C207.541 377.184 214.328 370.997 223.273 370.153C220.305 373.245 217.768 376.959 214.163 379.323C210.285 381.864 205.56 382.512 201.061 383.118C201.052 383.022 201.041 382.928 201.032 382.833ZM202.353 368.373C203.871 362.588 206.502 357.353 209.071 352.008C209.359 357.468 210.321 363.299 208.728 368.6C207.206 373.668 203.668 377.677 200.978 382.132C200.665 377.508 201.165 372.896 202.353 368.373ZM196.096 365.35C196.953 362.167 199.199 360.154 201.615 358.081C203.828 356.18 206.111 354.331 208.273 352.361C205.271 357.3 202.894 362.808 201.413 368.355C200.247 372.729 199.671 377.344 200.041 381.874C197.274 376.777 194.494 371.281 196.096 365.35ZM221.907 369.705C214.148 370.932 207.699 376.049 202.091 381.399C203.309 379.727 204.445 377.976 205.557 376.256C206.378 374.989 207.158 373.685 207.833 372.332C212.047 370.024 217.119 368.97 221.907 369.705ZM201.363 385.616C201.271 385.015 201.196 384.415 201.132 383.816C205.608 383.222 210.278 382.547 214.181 380.119C216.125 378.911 217.734 377.276 219.242 375.571C220.803 373.806 222.35 371.994 223.771 370.112C223.809 370.108 223.844 370.103 223.882 370.102C224.158 370.082 224.259 369.729 224.092 369.564C224.069 369.516 224.016 369.486 223.96 369.495C223.951 369.493 223.947 369.491 223.938 369.49C218.524 368.509 213.139 369.041 208.227 371.518C208.616 370.667 208.963 369.801 209.244 368.907C210.07 366.277 210.202 363.526 210.138 360.789C210.062 357.603 209.885 354.409 209.671 351.229C209.668 351.176 209.653 351.13 209.632 351.092C209.643 351.08 209.655 351.07 209.666 351.059C209.741 350.988 209.683 350.877 209.605 350.85C209.6 350.693 209.372 350.614 209.268 350.776C209.155 350.949 209.046 351.123 208.933 351.299C205.951 353.563 203.133 356.081 200.271 358.493C198.01 360.399 196.202 362.457 195.442 365.375C193.788 371.756 196.991 378.1 200.207 383.437C200.309 384.21 200.44 384.981 200.602 385.745C200.693 386.172 201.433 386.051 201.363 385.616" fill="#DE0351"/>
<path d="M236.039 338.691C238.552 343.188 239.587 348.541 238.461 353.582C237.227 349.345 235.652 345.191 233.41 341.429C231.731 338.614 229.719 336.01 227.679 333.45C225.727 331 223.767 328.544 221.742 326.15C227.542 328.883 232.877 333.032 236.039 338.691ZM225.284 342.232C222.908 337.265 222.121 331.7 221.449 326.277C225.226 331.477 229.466 336.384 232.659 341.98C235.058 346.187 236.48 350.698 237.786 355.284C233.091 351.398 227.989 347.886 225.284 342.232V342.232ZM221.155 325.213C220.938 325.114 220.721 325.328 220.746 325.541C221.424 331.402 222.161 337.465 224.836 342.811C227.668 348.475 232.95 352.23 237.956 355.893C238.315 357.164 238.667 358.437 239.033 359.711C239.185 360.251 240.108 359.989 239.981 359.442C239.627 357.933 239.25 356.416 238.835 354.905C240.408 349.387 239.412 343.413 236.631 338.437C233.221 332.33 227.423 328.059 221.155 325.213" fill="#DE0351"/>
<path d="M167.361 412.8C169.874 417.298 170.91 422.65 169.783 427.691C168.549 423.456 166.974 419.3 164.732 415.538C163.053 412.724 161.041 410.119 159.002 407.559C157.05 405.109 155.089 402.653 153.064 400.259C158.864 402.992 164.2 407.141 167.361 412.8ZM156.606 416.342C154.231 411.374 153.443 405.811 152.771 400.388C156.548 405.586 160.788 410.494 163.981 416.089C166.38 420.296 167.803 424.807 169.108 429.395C164.413 425.509 159.311 421.995 156.606 416.342V416.342ZM152.477 399.323C152.26 399.223 152.044 399.437 152.068 399.652C152.747 405.513 153.483 411.574 156.158 416.92C158.99 422.584 164.272 426.339 169.278 430.002C169.637 431.273 169.99 432.548 170.355 433.822C170.508 434.36 171.431 434.1 171.303 433.551C170.949 432.044 170.572 430.526 170.157 429.014C171.73 423.496 170.734 417.522 167.953 412.546C164.544 406.439 158.745 402.168 152.477 399.323" fill="#DE0351"/>
<path d="M306.483 353.201C308.087 351.742 309.783 350.374 311.556 349.095C317.012 345.158 322.991 342.125 328.758 338.696C328.821 338.706 328.886 338.713 328.948 338.723C328.991 338.729 329.034 338.727 329.071 338.718C329.139 338.766 329.208 338.815 329.278 338.861C323.324 345.889 315.952 352.366 306.483 353.201ZM305.133 353.014C306.865 348.683 309.431 344.872 313.366 342.18C317.676 339.235 322.973 337.996 328.134 338.615C320.119 342.264 311.747 346.832 305.133 353.014ZM304.661 352.265C304.183 346.721 305.707 341.31 308.676 336.585C311.417 332.226 315.136 328.629 319.08 325.362C317.651 327.447 316.359 329.637 315.007 331.766C313.489 334.16 311.967 336.554 310.474 338.962C307.892 343.126 305.581 347.418 304.661 352.265V352.265ZM319.762 324.801C319.375 330.38 317.709 335.636 314.973 340.526C314.964 340.539 314.959 340.552 314.954 340.564C314.316 340.915 313.695 341.298 313.095 341.717C309.604 344.145 306.612 347.778 305.179 351.863C306.046 347.075 308.602 342.744 311.143 338.661C314.002 334.069 317.133 329.566 319.739 324.823C319.747 324.815 319.754 324.808 319.762 324.801ZM298.173 347.854C297.496 340.771 295.908 333.918 293.461 327.235C292.164 323.688 290.546 320.277 288.651 317.013C288.652 317.004 288.654 316.998 288.656 316.99C293.971 319.724 297.086 324.667 298.636 330.378C299.488 333.525 300.077 336.873 299.847 340.14C299.662 342.776 298.957 345.335 298.173 347.854V347.854ZM289.44 333.609C287.451 328.375 287.175 322.606 288.601 317.201C293.663 326.605 296.209 337.1 297.175 347.712C294.628 343.001 291.344 338.622 289.44 333.609V333.609ZM280.02 339.687C280.257 339.71 280.493 339.737 280.728 339.77C284.717 342.614 288.144 346.271 290.91 350.298C292.156 352.113 293.213 353.979 294.125 355.906C287.196 352.98 281.792 347.052 280.02 339.687V339.687ZM294.424 353.979C291.245 348.258 286.526 343.368 281.084 339.821C288.22 340.971 293.695 346.802 294.424 353.979ZM329.683 338.766C329.694 338.691 329.671 338.613 329.589 338.564C329.496 338.507 329.403 338.455 329.312 338.402C329.312 338.289 329.249 338.187 329.102 338.163C324.627 337.454 319.965 338.105 315.899 340.077C318.692 335.222 320.228 329.64 320.488 324.055C320.503 323.736 320.119 323.642 319.909 323.815C315.318 327.62 310.873 331.806 307.816 336.984C304.928 341.876 303.224 347.897 304.58 353.537C302.32 355.714 300.279 358.083 298.547 360.68C298.625 356.99 298.595 353.305 298.32 349.598C299.364 346.39 300.378 343.121 300.524 339.727C300.671 336.352 300.013 332.863 299.065 329.637C297.466 324.202 294.025 318.485 288.386 316.553C288.384 316.551 288.383 316.548 288.381 316.545C288.363 316.513 288.33 316.511 288.306 316.525C288.293 316.52 288.282 316.515 288.268 316.511C288.154 316.473 288.07 316.621 288.124 316.705C288.11 316.732 288.096 316.758 288.086 316.789C286.614 322.24 286.781 328.084 288.705 333.404C289.704 336.17 291.208 338.703 292.699 341.224C294.193 343.747 295.629 346.337 297.268 348.776C297.51 351.76 297.63 354.75 297.648 357.724C297.657 359.026 297.619 360.325 297.564 361.622C296.957 359.403 296.113 357.261 295.078 355.215C294.851 346.716 288.177 339.695 279.651 339.086C279.459 339.073 279.343 339.277 279.38 339.445C281.07 347.097 286.789 353.856 294.307 356.293C295.455 358.781 296.371 361.369 297.141 364.078C297.192 364.257 297.303 364.358 297.432 364.403C297.341 366.191 297.248 367.979 297.223 369.769C297.213 370.413 298.193 370.408 298.221 369.769C298.323 367.342 298.431 364.925 298.502 362.512C298.502 362.51 298.504 362.51 298.505 362.508C300.635 359.226 303.162 356.29 305.99 353.651C315.792 353.547 323.818 346.453 329.761 339.265C329.906 339.088 329.827 338.868 329.683 338.766" fill="#DE0351"/>
<path d="M270.813 401.729C270.817 401.722 270.82 401.714 270.825 401.706C273.617 395.393 276.014 388.756 277.424 381.984C278.086 378.808 278.479 375.514 277.986 372.297C281.692 382.62 278.82 394.303 270.813 401.729ZM270.83 386.122C272.347 381.161 275.083 376.825 277.545 372.315C277.801 378.598 275.978 384.719 274.019 390.642C272.779 394.395 271.346 398.091 269.728 401.701C269.374 396.455 269.271 391.217 270.83 386.122ZM258.26 398.859C258.821 394.579 260.623 390.584 261.726 386.431C261.968 388.87 262.36 391.278 262.517 393.727C262.687 396.362 262.704 399.006 262.626 401.646C262.552 404.139 262.413 406.631 262.217 409.119C262.136 410.161 262.019 411.21 261.905 412.262C259.503 408.086 257.612 403.822 258.26 398.859V398.859ZM266.596 398.789C266.62 402.935 264.904 406.735 263.144 410.407C263.174 409.943 263.203 409.478 263.238 409.016C263.43 406.397 263.577 403.774 263.595 401.148C263.627 396.562 263.531 391.604 262.269 387.134C264.71 390.546 266.575 394.542 266.596 398.789V398.789ZM277.745 370.857C277.644 370.773 277.493 370.761 277.409 370.912C276.589 372.378 275.761 373.858 275.027 375.375C272.961 378.808 271.189 382.463 270.059 386.246C268.433 391.702 268.722 397.356 269.154 402.961C268.09 405.258 266.955 407.519 265.744 409.739C264.805 411.46 263.82 413.155 262.796 414.825C262.911 413.82 262.987 412.805 263.054 411.792C263.073 411.771 263.091 411.751 263.106 411.721C265.227 407.603 267.354 403.152 267.18 398.404C267.003 393.647 264.664 389.335 261.82 385.64C261.705 385.492 261.413 385.521 261.364 385.718C260.194 390.259 258.138 394.609 257.665 399.314C257.163 404.283 259.115 408.733 261.852 412.757C261.711 414.098 261.587 415.44 261.567 416.773V416.778C260.935 417.761 260.292 418.739 259.632 419.705C259.266 420.241 260.092 420.825 260.459 420.287C264.16 414.868 267.414 409.145 270.156 403.185C279.5 395.353 282.776 382.304 278.124 371C278.051 370.823 277.881 370.798 277.745 370.857" fill="#DE0351"/>
<path d="M249.465 298.934C254.004 306.259 259.028 313.947 258.435 322.913C255.854 319.491 252.595 316.394 250.836 312.456C248.947 308.223 249.061 303.455 249.18 298.916C249.276 298.922 249.371 298.926 249.465 298.934ZM263.53 302.545C268.999 304.966 273.747 308.4 278.612 311.79C273.178 311.201 267.267 311.221 262.289 308.804C257.528 306.491 254.135 302.357 250.166 298.992C254.782 299.422 259.253 300.651 263.53 302.545V302.545ZM267.512 296.85C270.518 298.206 272.147 300.742 273.808 303.457C275.33 305.947 276.794 308.496 278.392 310.944C273.994 307.191 268.938 303.966 263.697 301.621C259.566 299.771 255.101 298.466 250.57 298.11C256.044 296.189 261.912 294.323 267.512 296.85V296.85ZM259.093 321.636C259.123 313.782 255.098 306.6 250.712 300.209C252.168 301.677 253.715 303.08 255.235 304.451C256.357 305.464 257.52 306.441 258.746 307.325C260.354 311.853 260.585 317.027 259.093 321.636ZM246.667 298.818C247.274 298.821 247.877 298.843 248.479 298.876C248.351 303.389 248.272 308.107 250.047 312.347C250.929 314.46 252.287 316.309 253.73 318.068C255.224 319.893 256.764 321.709 258.397 323.413C258.393 323.449 258.392 323.486 258.39 323.522C258.363 323.799 258.694 323.954 258.883 323.815C258.936 323.799 258.974 323.752 258.976 323.698C258.979 323.689 258.982 323.683 258.985 323.674C260.815 318.486 261.149 313.087 259.488 307.843C260.263 308.362 261.065 308.842 261.904 309.262C264.369 310.496 267.062 311.067 269.775 311.441C272.931 311.872 276.113 312.207 279.284 312.504C279.34 312.509 279.387 312.503 279.428 312.486C279.438 312.501 279.446 312.514 279.456 312.528C279.514 312.612 279.632 312.574 279.671 312.498C279.828 312.519 279.941 312.308 279.799 312.179C279.646 312.04 279.489 311.904 279.337 311.767C277.577 308.46 275.54 305.277 273.615 302.067C272.094 299.53 270.352 297.415 267.59 296.203C261.558 293.549 254.783 295.7 249.002 298.022C248.221 298.003 247.44 298.006 246.661 298.046C246.224 298.067 246.224 298.817 246.667 298.818Z" fill="#DE0351"/>
<path d="M303.094 412.8C305.607 417.298 306.641 422.65 305.516 427.691C304.281 423.456 302.707 419.3 300.463 415.538C298.786 412.724 296.774 410.119 294.734 407.559C292.781 405.109 290.82 402.653 288.797 400.259C294.597 402.992 299.932 407.141 303.094 412.8ZM292.339 416.342C289.963 411.374 289.176 405.811 288.502 400.388C292.281 405.586 296.521 410.494 299.712 416.089C302.113 420.296 303.535 424.807 304.839 429.395C300.146 425.509 295.044 421.995 292.339 416.342V416.342ZM288.21 399.323C287.993 399.223 287.775 399.437 287.801 399.652C288.478 405.513 289.215 411.574 291.891 416.92C294.723 422.584 300.003 426.339 305.011 430.002C305.37 431.273 305.722 432.548 306.088 433.822C306.24 434.36 307.163 434.1 307.036 433.551C306.682 432.044 306.305 430.526 305.888 429.014C307.461 423.496 306.467 417.522 303.686 412.546C300.275 406.439 294.478 402.168 288.21 399.323" fill="#DE0351"/>
<path d="M27.11 499.912C28.7147 498.453 30.4104 497.085 32.1838 495.806C37.6398 491.869 43.6186 488.837 49.3856 485.407C49.4484 485.417 49.5129 485.424 49.5758 485.434C49.6205 485.442 49.6602 485.439 49.6982 485.429C49.7661 485.477 49.8355 485.526 49.905 485.573C43.9494 492.6 36.5777 499.077 27.11 499.912ZM25.7601 499.726C27.4922 495.394 30.058 491.583 33.9937 488.891C38.3016 485.947 43.5987 484.708 48.7619 485.326C40.7483 488.976 32.3724 493.543 25.7601 499.726ZM25.2886 498.976C24.8105 493.434 26.3341 488.021 29.3037 483.296C32.0449 478.937 35.7638 475.342 39.7077 472.073C38.2784 474.158 36.9864 476.348 35.6348 478.479C34.1161 480.871 32.5958 483.265 31.1019 485.674C28.5195 489.838 26.2084 494.131 25.2886 498.976V498.976ZM40.3893 471.513C40.0022 477.091 38.3379 482.347 35.5984 487.237C35.5918 487.25 35.5868 487.263 35.5818 487.277C34.9433 487.626 34.3229 488.01 33.7224 488.428C30.2317 490.857 27.2391 494.491 25.8064 498.574C26.6733 493.786 29.2292 489.455 31.7703 485.373C34.6273 480.78 37.7606 476.277 40.3662 471.534C40.3744 471.527 40.381 471.519 40.3893 471.513ZM18.8003 494.566C18.1237 487.482 16.5355 480.63 14.0888 473.946C12.7901 470.399 11.1739 466.988 9.278 463.724C9.27965 463.716 9.28131 463.709 9.28296 463.701C14.5967 466.435 17.7134 471.379 19.2635 477.089C20.1155 480.236 20.7028 483.586 20.4745 486.852C20.2892 489.487 19.5845 492.046 18.8003 494.566V494.566ZM10.0671 480.32C8.07861 475.086 7.80233 469.317 9.22837 463.914C14.2906 473.316 16.8366 483.811 17.8028 494.423C15.2534 489.712 11.9712 485.333 10.0671 480.32V480.32ZM0.645706 486.398C0.883929 486.421 1.1205 486.448 1.35376 486.481C5.34235 489.325 8.77177 492.982 11.5378 497.011C12.7835 498.824 13.8406 500.692 14.7522 502.617C7.82384 499.692 2.41915 493.763 0.645706 486.398ZM15.05 500.69C11.872 494.971 7.15384 490.079 1.71109 486.532C8.84622 487.684 14.322 493.514 15.05 500.69V500.69ZM50.3103 485.477C50.3219 485.402 50.2988 485.325 50.216 485.275C50.1234 485.219 50.0307 485.166 49.9381 485.113C49.9398 485 49.8769 484.898 49.7297 484.875C45.253 484.165 40.5928 484.817 36.5265 486.789C39.3173 481.933 40.8558 476.352 41.1139 470.766C41.1305 470.447 40.7467 470.353 40.5366 470.527C35.9441 474.332 31.5006 478.517 28.4434 483.695C25.5533 488.587 23.851 494.609 25.2059 500.248C22.9477 502.425 20.9063 504.794 19.1742 507.392C19.252 503.701 19.2222 500.017 18.9476 496.309C19.9914 493.102 21.0039 489.833 21.1511 486.438C21.2984 483.063 20.6399 479.574 19.6903 476.348C18.0923 470.914 14.6513 465.196 9.0133 463.266L9.00834 463.256C8.98849 463.224 8.95706 463.223 8.93224 463.236C8.92066 463.231 8.90908 463.226 8.89585 463.223C8.78004 463.185 8.69733 463.332 8.75192 463.418C8.73703 463.443 8.72214 463.469 8.71387 463.502C7.24152 468.952 7.4086 474.795 9.33259 480.115C10.3318 482.881 11.8339 485.414 13.3261 487.935C14.82 490.458 16.256 493.049 17.8937 495.487C18.1369 498.472 18.2577 501.461 18.2759 504.435C18.2842 505.737 18.2461 507.036 18.1915 508.333C17.5844 506.115 16.7407 503.972 15.7051 501.926C15.4768 493.427 8.8032 486.407 0.280098 485.798C0.0865414 485.784 -0.0309143 485.99 0.00713525 486.157C1.69786 493.808 7.41688 500.568 14.9341 503.004C16.0823 505.493 16.9988 508.08 17.768 510.79C17.8176 510.968 17.9301 511.069 18.0592 511.114C17.9665 512.902 17.8739 514.691 17.8507 516.482C17.8408 517.124 18.8202 517.121 18.8483 516.482C18.9509 514.054 19.0567 511.637 19.1279 509.223C19.1295 509.221 19.1312 509.221 19.1312 509.22C21.262 505.938 23.7898 503.001 26.617 500.362C36.4189 500.258 44.4457 493.166 50.3881 485.976C50.5353 485.799 50.4543 485.579 50.3103 485.477" fill="#DE0351"/>
<path d="M92.3961 485.404C94.9091 489.902 95.943 495.254 94.8181 500.294C93.5839 496.059 92.009 491.904 89.7674 488.142C88.0883 485.326 86.0766 482.722 84.0368 480.163C82.083 477.713 80.1243 475.256 78.0994 472.862C83.8995 475.595 89.2347 479.744 92.3961 485.404ZM81.6413 488.944C79.2657 483.978 78.4783 478.413 77.8066 472.99C81.5834 478.189 85.8251 483.096 89.0163 488.693C91.4151 492.899 92.8378 497.411 94.1414 501.997C89.4481 498.111 84.3462 494.598 81.6413 488.944V488.944ZM77.5121 471.926C77.2954 471.827 77.0787 472.04 77.1035 472.253C77.7818 478.115 78.518 484.178 81.193 489.523C84.0252 495.187 89.3075 498.943 94.3152 502.605C94.6725 503.876 95.0249 505.15 95.3905 506.424C95.5443 506.963 96.4658 506.702 96.3384 506.154C95.9844 504.645 95.6072 503.128 95.1919 501.618C96.7636 496.099 95.771 490.125 92.99 485.149C89.5788 479.043 83.7804 474.771 77.5121 471.926" fill="#DE0351"/>
<path d="M170.752 499.912C172.358 498.453 174.053 497.085 175.826 495.806C181.282 491.869 187.261 488.837 193.028 485.407C193.092 485.417 193.155 485.424 193.218 485.434C193.263 485.442 193.304 485.439 193.34 485.429C193.41 485.477 193.478 485.526 193.547 485.573C187.593 492.6 180.222 499.077 170.752 499.912ZM169.402 499.726C171.134 495.394 173.7 491.583 177.636 488.891C181.945 485.947 187.242 484.708 192.404 485.326C184.39 488.976 176.016 493.543 169.402 499.726ZM168.931 498.976C168.453 493.434 169.976 488.021 172.946 483.296C175.687 478.937 179.406 475.342 183.35 472.073C181.922 474.158 180.63 476.348 179.277 478.479C177.758 480.871 176.238 483.265 174.744 485.674C172.162 489.838 169.851 494.131 168.931 498.976V498.976ZM184.031 471.513C183.644 477.091 181.98 482.347 179.242 487.237C179.234 487.25 179.229 487.263 179.224 487.277C178.585 487.626 177.965 488.01 177.364 488.428C173.875 490.857 170.881 494.491 169.45 498.574C170.315 493.786 172.871 489.455 175.412 485.373C178.271 480.78 181.403 476.277 184.008 471.534C184.017 471.527 184.023 471.519 184.031 471.513ZM162.442 494.566C161.766 487.482 160.178 480.63 157.731 473.946C156.434 470.399 154.816 466.988 152.92 463.724C152.922 463.716 152.923 463.709 152.927 463.701C158.24 466.435 161.356 471.379 162.906 477.089C163.758 480.236 164.347 483.586 164.117 486.852C163.931 489.487 163.227 492.046 162.442 494.566V494.566ZM153.709 480.32C151.721 475.086 151.444 469.317 152.87 463.914C157.933 473.316 160.479 483.811 161.445 494.423C158.897 489.712 155.613 485.333 153.709 480.32V480.32ZM144.289 486.398C144.526 486.421 144.763 486.448 144.998 486.481C148.986 489.325 152.414 492.982 155.18 497.011C156.426 498.824 157.483 500.692 158.394 502.617C151.466 499.692 146.063 493.763 144.289 486.398V486.398ZM158.694 500.69C155.516 494.971 150.796 490.079 145.353 486.532C152.49 487.684 157.966 493.514 158.694 500.69ZM193.952 485.477C193.964 485.402 193.943 485.325 193.858 485.275C193.767 485.219 193.675 485.166 193.582 485.113C193.582 485 193.521 484.898 193.373 484.875C188.897 484.165 184.235 484.817 180.169 486.789C182.961 481.933 184.5 476.352 184.758 470.766C184.773 470.447 184.389 470.353 184.179 470.527C179.588 474.332 175.143 478.517 172.087 483.695C169.197 488.587 167.493 494.609 168.85 500.248C166.59 502.425 164.548 504.794 162.816 507.392C162.894 503.701 162.864 500.017 162.59 496.309C163.634 493.102 164.648 489.833 164.793 486.438C164.94 483.063 164.282 479.574 163.334 476.348C161.736 470.914 158.295 465.196 152.655 463.266L152.65 463.256C152.632 463.224 152.599 463.223 152.576 463.236C152.563 463.231 152.551 463.226 152.538 463.223C152.424 463.185 152.339 463.332 152.394 463.418C152.379 463.443 152.366 463.469 152.358 463.502C150.884 468.952 151.051 474.795 152.975 480.115C153.974 482.881 155.478 485.414 156.97 487.935C158.462 490.458 159.9 493.049 161.538 495.487C161.779 498.472 161.9 501.461 161.918 504.435C161.926 505.737 161.89 507.036 161.834 508.333C161.226 506.115 160.384 503.972 159.347 501.926C159.121 493.427 152.447 486.407 143.922 485.798C143.729 485.784 143.613 485.99 143.649 486.157C145.34 493.808 151.059 500.568 158.576 503.004C159.724 505.493 160.641 508.08 161.412 510.79C161.461 510.968 161.572 511.069 161.701 511.114C161.61 512.902 161.518 514.691 161.493 516.482C161.483 517.124 162.464 517.121 162.49 516.482C162.593 514.054 162.7 511.637 162.772 509.223C162.772 509.221 162.773 509.221 162.775 509.22C164.906 505.938 167.432 503.001 170.259 500.362C180.061 500.258 188.088 493.166 194.03 485.976C194.177 485.799 194.096 485.579 193.952 485.477" fill="#DE0351"/>
<path d="M113.735 445.646C118.274 452.971 123.298 460.659 122.703 469.627C120.125 466.203 116.863 463.106 115.106 459.169C113.215 454.935 113.329 450.167 113.45 445.63C113.545 445.636 113.64 445.64 113.735 445.646ZM127.798 449.258C133.267 451.678 138.015 455.112 142.882 458.502C137.446 457.913 131.535 457.933 126.557 455.516C121.798 453.203 118.407 449.069 114.436 445.704C119.05 446.134 123.523 447.363 127.798 449.258V449.258ZM131.782 443.562C134.788 444.918 136.416 447.454 138.077 450.169C139.6 452.66 141.063 455.208 142.662 457.657C138.265 453.903 133.208 450.679 127.967 448.333C123.836 446.483 119.371 445.178 114.84 444.822C120.314 442.902 126.184 441.036 131.782 443.562V443.562ZM123.363 468.348C123.391 460.494 119.368 453.312 114.98 446.922C116.438 448.389 117.985 449.792 119.505 451.163C120.628 452.176 121.79 453.153 123.016 454.037C124.624 458.565 124.854 463.74 123.363 468.348V468.348ZM110.936 445.53C111.543 445.534 112.147 445.555 112.749 445.588C112.621 450.101 112.542 454.819 114.315 459.059C115.199 461.172 116.557 463.022 118 464.78C119.493 466.605 121.034 468.421 122.666 470.125C122.663 470.162 122.662 470.198 122.658 470.234C122.632 470.512 122.966 470.666 123.155 470.527C123.206 470.511 123.244 470.466 123.245 470.41C123.247 470.402 123.25 470.395 123.254 470.387C125.085 465.199 125.419 459.799 123.758 454.555C124.534 455.074 125.333 455.556 126.172 455.974C128.637 457.21 131.33 457.779 134.045 458.153C137.201 458.585 140.383 458.919 143.554 459.217C143.609 459.222 143.655 459.215 143.698 459.198C143.708 459.213 143.718 459.227 143.724 459.24C143.784 459.324 143.901 459.286 143.94 459.21C144.097 459.231 144.209 459.02 144.067 458.891C143.916 458.752 143.761 458.616 143.605 458.479C141.847 455.172 139.809 451.989 137.883 448.779C136.363 446.242 134.621 444.127 131.861 442.915C125.826 440.261 119.052 442.412 113.27 444.736C112.491 444.715 111.71 444.718 110.929 444.758C110.494 444.779 110.494 445.529 110.936 445.53Z" fill="#DE0351"/>
<path d="M236.039 485.404C238.552 489.902 239.587 495.254 238.461 500.294C237.227 496.059 235.652 491.904 233.41 488.142C231.731 485.326 229.719 482.722 227.679 480.163C225.727 477.713 223.767 475.256 221.742 472.862C227.542 475.595 232.877 479.744 236.039 485.404ZM225.284 488.944C222.908 483.978 222.121 478.413 221.449 472.99C225.226 478.189 229.466 483.096 232.659 488.693C235.058 492.899 236.48 497.411 237.786 501.997C233.091 498.111 227.989 494.598 225.284 488.944V488.944ZM221.155 471.926C220.938 471.827 220.721 472.04 220.746 472.253C221.424 478.115 222.161 484.178 224.836 489.523C227.668 495.187 232.95 498.943 237.956 502.605C238.315 503.876 238.667 505.15 239.033 506.424C239.185 506.963 240.108 506.702 239.981 506.154C239.627 504.645 239.25 503.128 238.835 501.618C240.408 496.099 239.412 490.125 236.631 485.149C233.221 479.043 227.423 474.771 221.155 471.926" fill="#DE0351"/>
<path d="M306.483 499.912C308.087 498.453 309.783 497.085 311.556 495.806C317.012 491.869 322.991 488.837 328.758 485.407C328.821 485.417 328.886 485.424 328.948 485.434C328.991 485.442 329.034 485.439 329.071 485.429C329.139 485.477 329.208 485.526 329.278 485.573C323.324 492.6 315.952 499.077 306.483 499.912ZM305.133 499.726C306.865 495.394 309.431 491.583 313.366 488.891C317.676 485.947 322.973 484.708 328.134 485.326C320.119 488.976 311.747 493.543 305.133 499.726ZM304.661 498.976C304.183 493.434 305.707 488.021 308.676 483.296C311.417 478.937 315.136 475.342 319.08 472.073C317.651 474.158 316.359 476.348 315.007 478.479C313.489 480.871 311.967 483.265 310.474 485.674C307.892 489.838 305.581 494.131 304.661 498.976V498.976ZM319.762 471.513C319.375 477.091 317.709 482.347 314.973 487.237C314.964 487.25 314.959 487.263 314.954 487.277C314.316 487.626 313.695 488.01 313.095 488.428C309.604 490.857 306.612 494.491 305.179 498.574C306.046 493.786 308.602 489.455 311.143 485.373C314.002 480.78 317.133 476.277 319.739 471.534C319.747 471.527 319.754 471.519 319.762 471.513ZM298.173 494.566C297.496 487.482 295.908 480.63 293.461 473.946C292.164 470.399 290.546 466.988 288.651 463.724C288.652 463.716 288.654 463.709 288.656 463.701C293.971 466.435 297.086 471.379 298.636 477.089C299.488 480.236 300.077 483.586 299.847 486.852C299.662 489.487 298.957 492.046 298.173 494.566V494.566ZM289.44 480.32C287.451 475.086 287.175 469.317 288.601 463.914C293.663 473.316 296.209 483.811 297.175 494.423C294.628 489.712 291.344 485.333 289.44 480.32V480.32ZM280.02 486.398C280.257 486.421 280.493 486.448 280.728 486.481C284.717 489.325 288.144 492.982 290.91 497.011C292.156 498.824 293.213 500.692 294.125 502.617C287.196 499.692 281.792 493.763 280.02 486.398V486.398ZM294.424 500.69C291.245 494.971 286.526 490.079 281.084 486.532C288.22 487.684 293.695 493.514 294.424 500.69ZM329.683 485.477C329.694 485.402 329.671 485.325 329.589 485.275C329.496 485.219 329.403 485.166 329.312 485.113C329.312 485 329.249 484.898 329.102 484.875C324.627 484.165 319.965 484.817 315.899 486.789C318.692 481.933 320.228 476.352 320.488 470.766C320.503 470.447 320.119 470.353 319.909 470.527C315.318 474.332 310.873 478.517 307.816 483.695C304.928 488.587 303.224 494.609 304.58 500.248C302.32 502.425 300.279 504.794 298.547 507.392C298.625 503.701 298.595 500.017 298.32 496.309C299.364 493.102 300.378 489.833 300.524 486.438C300.671 483.063 300.013 479.574 299.065 476.348C297.466 470.914 294.025 465.196 288.386 463.266L288.381 463.256C288.363 463.224 288.33 463.223 288.306 463.236C288.293 463.231 288.282 463.226 288.268 463.223C288.154 463.185 288.07 463.332 288.124 463.418C288.11 463.443 288.096 463.469 288.086 463.502C286.614 468.952 286.781 474.795 288.705 480.115C289.704 482.881 291.208 485.414 292.699 487.935C294.193 490.458 295.629 493.049 297.268 495.487C297.51 498.472 297.63 501.461 297.648 504.435C297.657 505.737 297.619 507.036 297.564 508.333C296.957 506.115 296.113 503.972 295.078 501.926C294.851 493.427 288.177 486.407 279.651 485.798C279.459 485.784 279.343 485.99 279.38 486.157C281.07 493.808 286.789 500.568 294.307 503.004C295.455 505.493 296.371 508.08 297.141 510.79C297.192 510.968 297.303 511.069 297.432 511.114C297.341 512.902 297.248 514.691 297.223 516.482C297.213 517.124 298.193 517.121 298.221 516.482C298.323 514.054 298.431 511.637 298.502 509.223C298.502 509.221 298.504 509.221 298.505 509.22C300.635 505.938 303.162 503.001 305.99 500.362C315.792 500.258 323.818 493.166 329.761 485.976C329.906 485.799 329.827 485.579 329.683 485.477" fill="#DE0351"/>
<path d="M249.465 445.646C254.004 452.971 259.028 460.659 258.435 469.627C255.854 466.203 252.595 463.106 250.836 459.169C248.947 454.935 249.061 450.167 249.18 445.63C249.276 445.636 249.371 445.64 249.465 445.646ZM263.53 449.258C268.999 451.678 273.747 455.112 278.612 458.502C273.178 457.913 267.267 457.933 262.289 455.516C257.528 453.203 254.135 449.069 250.166 445.704C254.782 446.134 259.253 447.363 263.53 449.258V449.258ZM267.512 443.562C270.518 444.918 272.147 447.454 273.808 450.169C275.33 452.66 276.794 455.208 278.392 457.657C273.994 453.903 268.938 450.679 263.697 448.333C259.566 446.483 255.101 445.178 250.57 444.822C256.044 442.902 261.912 441.036 267.512 443.562V443.562ZM259.093 468.348C259.123 460.494 255.098 453.312 250.712 446.922C252.168 448.389 253.715 449.792 255.235 451.163C256.357 452.176 257.52 453.153 258.746 454.037C260.354 458.565 260.585 463.74 259.093 468.348ZM246.667 445.53C247.274 445.534 247.877 445.555 248.479 445.588C248.351 450.101 248.272 454.819 250.047 459.059C250.929 461.172 252.287 463.022 253.73 464.78C255.224 466.605 256.764 468.421 258.397 470.125C258.393 470.162 258.392 470.198 258.39 470.234C258.363 470.512 258.694 470.666 258.883 470.527C258.936 470.511 258.974 470.466 258.976 470.41C258.979 470.402 258.982 470.395 258.985 470.387C260.815 465.199 261.149 459.799 259.488 454.555C260.263 455.074 261.065 455.556 261.904 455.974C264.369 457.21 267.062 457.779 269.775 458.153C272.931 458.585 276.113 458.919 279.284 459.217C279.34 459.222 279.387 459.215 279.428 459.198C279.438 459.213 279.446 459.227 279.456 459.24C279.514 459.324 279.632 459.286 279.671 459.21C279.828 459.231 279.941 459.02 279.799 458.891C279.646 458.752 279.489 458.616 279.337 458.479C277.577 455.172 275.54 451.989 273.615 448.779C272.094 446.242 270.352 444.127 267.59 442.915C261.558 440.261 254.783 442.412 249.002 444.736C248.221 444.715 247.44 444.718 246.661 444.758C246.224 444.779 246.224 445.529 246.667 445.53Z" fill="#DE0351"/>
</svg>
