<svg width="70" height="82" viewBox="0 0 70 82" fill="none" xmlns="http://www.w3.org/2000/svg">
<g filter="url(#filter0_d_681_8574)">
<path d="M35.5783 60.8737C38.7291 58.3576 53.6661 45.6743 53.6661 31.3506C53.6661 21.0411 45.3086 12.6836 34.9991 12.6836C24.6896 12.6836 16.332 21.0411 16.332 31.3506C16.332 45.6743 31.269 58.3576 34.4199 60.8737C34.7665 61.1505 35.2317 61.1505 35.5783 60.8737Z" fill="#E2195B"/>
<path d="M35.5783 60.8737L34.9543 60.0923H34.9543L35.5783 60.8737ZM34.4199 60.8737L35.0439 60.0923H35.0439L34.4199 60.8737ZM52.6661 31.3506C52.6661 38.1806 49.0933 44.7133 45.0162 49.9238C40.9553 55.1138 36.4995 58.8584 34.9543 60.0923L36.2023 61.6552C37.8079 60.373 42.3961 56.5179 46.5913 51.1563C50.7705 45.8152 54.6661 38.8444 54.6661 31.3506H52.6661ZM35.0439 60.0923C33.4987 58.8584 29.0429 55.1138 24.9819 49.9238C20.9049 44.7133 17.332 38.1806 17.332 31.3506H15.332C15.332 38.8444 19.2276 45.8152 23.4068 51.1563C27.6021 56.5179 32.1903 60.373 33.7959 61.6552L35.0439 60.0923ZM17.332 31.3506C17.332 21.5934 25.2418 13.6836 34.9991 13.6836V11.6836C24.1373 11.6836 15.332 20.4888 15.332 31.3506H17.332ZM34.9991 13.6836C44.7563 13.6836 52.6661 21.5934 52.6661 31.3506H54.6661C54.6661 20.4888 45.8609 11.6836 34.9991 11.6836V13.6836ZM34.9543 60.0923C34.9533 60.0931 34.9571 60.0899 34.9662 60.0867C34.9752 60.0835 34.9865 60.0813 34.9991 60.0813C35.0117 60.0813 35.023 60.0835 35.0319 60.0867C35.041 60.0899 35.0448 60.0931 35.0439 60.0923L33.7959 61.6552C34.5074 62.2233 35.4908 62.2233 36.2023 61.6552L34.9543 60.0923Z" fill="#E2195B"/>
<path d="M34.9992 37.9003C39.2218 37.9003 42.6449 34.4772 42.6449 30.2546C42.6449 26.032 39.2218 22.6089 34.9992 22.6089C30.7766 22.6089 27.3535 26.032 27.3535 30.2546C27.3535 34.4772 30.7766 37.9003 34.9992 37.9003Z" fill="white"/>
</g>
<defs>
<filter id="filter0_d_681_8574" x="-12" y="-5.99512" width="94" height="94" filterUnits="userSpaceOnUse" color-interpolation-filters="sRGB">
<feFlood flood-opacity="0" result="BackgroundImageFix"/>
<feColorMatrix in="SourceAlpha" type="matrix" values="0 0 0 0 0 0 0 0 0 0 0 0 0 0 0 0 0 0 127 0" result="hardAlpha"/>
<feOffset dy="4"/>
<feGaussianBlur stdDeviation="7.5"/>
<feColorMatrix type="matrix" values="0 0 0 0 0.133333 0 0 0 0 0.164706 0 0 0 0 0.27451 0 0 0 0.15 0"/>
<feBlend mode="normal" in2="BackgroundImageFix" result="effect1_dropShadow_681_8574"/>
<feBlend mode="normal" in="SourceGraphic" in2="effect1_dropShadow_681_8574" result="shape"/>
</filter>
</defs>
</svg>
