<svg width="47" height="49" viewBox="0 0 47 49" fill="none" xmlns="http://www.w3.org/2000/svg">
<path d="M39.5633 30.8465C39.561 30.8243 39.2945 28.5985 38.8294 26.7162L38.8086 26.6281C38.7093 26.2286 38.6083 25.8131 38.5077 25.3849C40.4585 25.2145 42.4027 25.394 44.2941 25.929C43.6556 30.6363 41.4481 35.0116 38.0391 38.3509C39.1204 36.1029 39.659 33.4769 39.5633 30.8465" fill="#3094A4"/>
<path d="M6.47658 25.2978C6.91221 25.2978 7.35948 25.3193 7.84045 25.3615C7.73262 25.8217 7.62232 26.272 7.51204 26.7162C7.04884 28.5984 6.78171 30.8243 6.77741 30.8587C6.67754 33.671 7.33008 36.547 8.58611 38.8943C4.88539 35.5189 2.4885 30.9818 1.79492 26.0091C3.33831 25.5379 4.91174 25.2978 6.47658 25.2978Z" fill="#3094A4"/>
<path d="M9.03233 27.09C9.14997 26.6085 9.27374 26.1042 9.39505 25.5822C16.9791 26.9865 22.4664 33.5692 22.4664 41.2893C22.4664 42.0711 22.3923 42.8903 22.233 43.8633C21.529 43.9895 20.8667 44.0508 20.2123 44.0508C19.0666 44.0508 17.9227 43.8915 16.8149 43.5814C16.2941 43.424 15.7825 43.2298 15.3064 43.0441C13.9015 42.4332 12.665 41.5798 11.6314 40.5051C9.35708 38.1394 8.22971 34.9534 8.37124 31.2999C8.37368 31.2748 8.61326 28.7909 9.03233 27.09" fill="#3094A4"/>
<path d="M9.72656 24.0522C10.1726 21.7876 10.3148 19.8877 10.1671 18.1341C13.3599 21.9151 17.9877 23.872 22.0867 25.6054C27.8307 28.0353 32.3683 29.9549 31.4603 35.7383L31.4585 35.7976C30.2613 39.4279 27.4447 42.2709 23.8848 43.4534C23.9841 42.6685 24.0326 41.9584 24.0326 41.2893C24.0326 32.837 18.0262 25.6134 9.72656 24.0522Z" fill="#E31059"/>
<path d="M31.9339 29.9611C31.9431 30.0126 31.9505 30.0647 31.9584 30.1191C30.143 27.3118 26.5189 25.78 22.698 24.1638C17.6954 22.0486 12.0346 19.6549 9.35156 13.9819C17.5611 14.6196 30.1638 20.5947 31.9339 29.9611" fill="#E31059"/>
<path d="M33.1437 11.3043C32.9139 11.8343 32.7197 12.4121 32.5389 13.0984C30.2928 13.629 28.03 14.4291 25.8109 15.4769C25.2828 14.9437 24.6872 14.5026 24.0352 14.1632C26.5129 12.4256 28.3922 11.3534 33.1437 11.3043Z" fill="#E31059"/>
<path d="M22.0337 13.4789C21.584 13.3967 21.1607 13.3562 20.7433 13.3562C19.616 13.3562 18.477 13.6393 17.4446 14.1755C17.0826 14.0479 16.7204 13.9242 16.3656 13.8122C15.3614 13.4176 14.7383 12.8979 14.7383 12.4587C14.7383 11.6989 17.5053 10.2192 22.576 10.2192C24.1291 10.2192 25.678 10.3798 26.999 10.6708C25.1843 11.3595 23.6659 12.3539 22.0337 13.4789" fill="#E31059"/>
<path d="M24.3105 16.217C23.9424 16.4154 23.5784 16.6311 23.2261 16.8377L23.1906 16.8584C22.0644 16.1955 20.8617 15.5865 19.6094 15.0394C21.2911 14.6839 23.0171 15.1374 24.3105 16.217" fill="#E31059"/>
<path d="M33.6457 31.9566C33.6457 31.1289 33.5898 30.3894 33.4728 29.681C32.4147 24.0584 28.1858 20.1548 24.7363 17.8339C28.6766 15.6613 33.2957 14.2244 37.1987 13.9604C35.1982 18.5158 36.4157 23.4609 37.3089 27.09C37.7287 28.7909 37.9671 31.2748 37.9683 31.2906C38.1117 34.9534 36.9842 38.1394 34.7093 40.5051C34.0378 41.2029 33.251 41.8144 32.3044 42.3763C30.2715 43.3547 28.1308 44.0005 25.9275 44.3001C30.5828 42.0613 33.6457 37.2253 33.6457 31.9566" fill="#E31059"/>
<path d="M26.6997 45.7756C25.6041 46.3576 24.3898 46.6627 23.143 46.6627C21.9225 46.6627 20.7295 46.3699 19.6494 45.8105C20.8117 45.9869 21.9267 46.0727 23.0388 46.0727C24.2525 46.0727 25.4804 45.9735 26.6997 45.7756V45.7756ZM33.6459 31.9566C33.6459 31.1289 33.5901 30.3894 33.4731 29.681C32.4149 24.0584 28.1861 20.1548 24.7366 17.8339C28.6769 15.6613 33.296 14.2244 37.1989 13.9604C35.1984 18.5159 36.4159 23.4609 37.3092 27.09C37.7289 28.7909 37.9673 31.2748 37.9686 31.2907C38.112 34.9535 36.9845 38.1394 34.7095 40.5051C34.038 41.203 33.2513 41.8144 32.3047 42.3763C30.2717 43.3548 28.131 44.0006 25.9277 44.3002C30.5831 42.0614 33.6459 37.2253 33.6459 31.9566V31.9566ZM9.03306 27.09C9.15069 26.6085 9.27447 26.1042 9.39577 25.5822C16.9798 26.9865 22.4671 33.5692 22.4671 41.2893C22.4671 42.0712 22.3931 42.8903 22.2337 43.8633C21.5298 43.9895 20.8674 44.0508 20.213 44.0508C19.0673 44.0508 17.9234 43.8915 16.8156 43.5815C16.2948 43.424 15.7832 43.2298 15.3071 43.0441C13.9022 42.4333 12.6658 41.5798 11.6322 40.5051C9.3578 38.1394 8.23043 34.9535 8.37196 31.2999C8.3744 31.2748 8.61398 28.7909 9.03306 27.09V27.09ZM39.1749 13.5285L39.8618 12.3502H38.4984C37.2272 12.3502 35.8051 12.4868 34.2653 12.7589C34.4902 12.0953 34.7738 11.466 35.1133 10.8852L35.8014 9.70881H34.4449C32.6932 9.61878 31.1675 9.69234 29.7761 9.92824C28.0281 9.11763 25.4081 8.65508 22.5744 8.65508C17.9013 8.65508 13.17 9.96134 13.17 12.4587C13.17 12.6259 13.1945 12.7963 13.2423 12.9702C11.3374 12.5591 9.52138 12.3502 7.84442 12.3502H6.48055L7.168 13.5285C9.1703 16.9596 8.77205 20.8122 8.17467 23.8164C7.59567 23.7611 7.02586 23.7348 6.47565 23.7348C4.85873 23.7348 3.23078 23.9665 1.63223 24.4259C1.59854 23.9713 1.56545 23.5033 1.56545 23.0357C1.56545 11.1965 11.1983 1.56428 23.0388 1.56428C34.878 1.56428 44.5098 11.1965 44.5098 23.0357C44.5098 23.4641 44.479 23.8929 44.4503 24.3089L44.4472 24.3512C42.383 23.8035 40.2742 23.6319 38.1731 23.844C37.5727 20.8269 37.1708 16.9626 39.1749 13.5285ZM24.3107 16.2171C23.9426 16.4155 23.5786 16.6311 23.2263 16.8377L23.1908 16.8584C22.0646 16.1956 20.8619 15.5865 19.6096 15.0394C21.2913 14.684 23.0173 15.1374 24.3107 16.2171V16.2171ZM22.0321 13.4789C21.5825 13.3967 21.1591 13.3562 20.7417 13.3562C19.6144 13.3562 18.4754 13.6394 17.443 14.1755C17.081 14.048 16.7188 13.9242 16.364 13.8122C15.3598 13.4176 14.7367 12.8979 14.7367 12.4587C14.7367 11.6989 17.5037 10.2192 22.5744 10.2192C24.1275 10.2192 25.6764 10.3798 26.9974 10.6708C25.1827 11.3595 23.6643 12.354 22.0321 13.4789V13.4789ZM33.1441 11.3043C32.9144 11.8343 32.7202 12.4121 32.5393 13.0984C30.2932 13.629 28.0305 14.4291 25.8113 15.4769C25.2832 14.9437 24.6876 14.5027 24.0356 14.1632C26.5134 12.4256 28.3926 11.3534 33.1441 11.3043ZM31.9322 29.9612C31.9414 30.0126 31.9488 30.0647 31.9566 30.1191C30.1412 27.3118 26.5172 25.78 22.6963 24.1638C17.6936 22.0486 12.0328 19.6549 9.34983 13.9819C17.5594 14.6197 30.1621 20.5948 31.9322 29.9612V29.9612ZM9.72664 24.0523C10.1727 21.7876 10.3148 19.8877 10.1672 18.1341C13.36 21.9152 17.9877 23.872 22.0867 25.6054C27.8308 28.0354 32.3684 29.9549 31.4603 35.7383L31.4586 35.7976C30.2614 39.428 27.4448 42.2709 23.8849 43.4534C23.9842 42.6685 24.0326 41.9584 24.0326 41.2893C24.0326 32.8371 18.0263 25.6134 9.72664 24.0523ZM6.47565 25.2978C6.91128 25.2978 7.35855 25.3193 7.83952 25.3615C7.73169 25.8217 7.62139 26.272 7.51111 26.7162C7.04791 28.5985 6.78078 30.8243 6.77648 30.8587C6.67661 33.671 7.32914 36.5471 8.58518 38.8943C4.88445 35.5189 2.48757 30.9818 1.79399 26.0091C3.33738 25.538 4.91081 25.2978 6.47565 25.2978ZM39.5639 30.8464C39.5616 30.8243 39.2951 28.5985 38.83 26.7162L38.8092 26.6281C38.7099 26.2286 38.6089 25.8131 38.5083 25.3849C40.4591 25.2145 42.4033 25.394 44.2947 25.929C43.6562 30.6363 41.4487 35.0116 38.0396 38.3509C39.121 36.1029 39.6596 33.4769 39.5639 30.8464V30.8464ZM23.0388 1.08333e-06C10.3357 1.08333e-06 0 10.3332 0 23.0357C0 32.5822 5.76797 41.0014 14.6895 44.4846C15.2073 44.7082 15.6968 44.889 16.1863 45.036C17.9399 47.0647 20.4729 48.2264 23.143 48.2264C25.8714 48.2264 28.4403 47.0224 30.1964 44.9233C39.6976 41.8083 46.0764 33.0185 46.0764 23.0357C46.0764 10.3332 35.7413 1.08333e-06 23.0388 1.08333e-06" fill="#1B1C40"/>
</svg>
