<svg display="none" xmlns="http://www.w3.org/2000/svg">

	<!-- clock icon -->
	<symbol id="clock" viewBox="0 0 14 14">
		<g>
			<circle fill="transparent" cx="7" cy="6.99999" r="6" stroke-width="1.5"/>
			<path fill="transparent" d="M7 4.33333V6.99999L9 8.33333" stroke-width="1.5" stroke-linecap="round" stroke-linejoin="round"/>
		</g>
	</symbol>

	<!-- telegram icon -->
	<symbol id="telegram" viewBox="0 0 20 20">
		<g>
			<path d="M7.8474 12.6506L7.51657 17.304C7.9899 17.304 8.1949 17.1006 8.44073 16.8565L10.6599 14.7356L15.2582 18.1031C16.1016 18.5731 16.6957 18.3256 16.9232 17.3273L19.9416 3.18398L19.9424 3.18314C20.2099 1.93648 19.4916 1.44898 18.6699 1.75481L0.928237 8.54731C-0.282596 9.01731 -0.264262 9.69231 0.722404 9.99814L5.25823 11.409L15.7941 4.81648C16.2899 4.48814 16.7407 4.66981 16.3699 4.99814L7.8474 12.6506Z" />
		</g>
	</symbol>

	<!-- instagram icon -->
	<symbol id="instagram" viewBox="0 0 20 20">
		<g>
			<path d="M19.9804 5.88005C19.9336 4.81738 19.7617 4.0868 19.5156 3.45374C19.2616 2.78176 18.8709 2.18014 18.359 1.68002C17.8589 1.1721 17.2533 0.777435 16.5891 0.527447C15.9524 0.281274 15.2256 0.109427 14.163 0.0625732C13.0923 0.0117516 12.7525 0 10.0371 0C7.32172 0 6.98185 0.0117516 5.9152 0.0586052C4.85253 0.105459 4.12195 0.277459 3.48904 0.523479C2.81692 0.777435 2.2153 1.16814 1.71517 1.68002C1.20726 2.18014 0.812742 2.78573 0.562602 3.44992C0.31643 4.0868 0.144583 4.81341 0.0977294 5.87609C0.0469078 6.9467 0.0351562 7.28658 0.0351562 10.002C0.0351562 12.7173 0.0469078 13.0572 0.0937614 14.1239C0.140615 15.1865 0.312615 15.9171 0.558787 16.5502C0.812742 17.2221 1.20726 17.8238 1.71517 18.3239C2.2153 18.8318 2.82088 19.2265 3.48507 19.4765C4.12195 19.7226 4.84856 19.8945 5.91139 19.9413C6.97788 19.9883 7.31791 19.9999 10.0333 19.9999C12.7486 19.9999 13.0885 19.9883 14.1552 19.9413C15.2178 19.8945 15.9484 19.7226 16.5813 19.4765C17.9254 18.9568 18.9881 17.8941 19.5078 16.5502C19.7538 15.9133 19.9258 15.1865 19.9726 14.1239C20.0195 13.0572 20.0312 12.7173 20.0312 10.002C20.0312 7.28658 20.0273 6.9467 19.9804 5.88005ZM18.1794 14.0457C18.1364 15.0225 17.9723 15.5499 17.8355 15.9015C17.4995 16.7728 16.808 17.4643 15.9367 17.8004C15.585 17.9372 15.0538 18.1012 14.0808 18.1441C13.026 18.1911 12.7096 18.2027 10.0411 18.2027C7.37255 18.2027 7.0522 18.1911 6.00113 18.1441C5.02437 18.1012 4.49693 17.9372 4.1453 17.8004C3.71171 17.6402 3.31704 17.3862 2.9967 17.0541C2.6646 16.7298 2.41065 16.3391 2.2504 15.9055C2.11365 15.5539 1.94959 15.0225 1.9067 14.0497C1.8597 12.9948 1.8481 12.6783 1.8481 10.0097C1.8481 7.34122 1.8597 7.02087 1.9067 5.96995C1.94959 4.99319 2.11365 4.46575 2.2504 4.11412C2.41065 3.68038 2.6646 3.28586 3.00067 2.96536C3.32483 2.63327 3.71553 2.37931 4.14927 2.21921C4.5009 2.08247 5.03231 1.9184 6.00509 1.87537C7.05999 1.82851 7.37651 1.81676 10.0449 1.81676C12.7174 1.81676 13.0337 1.82851 14.0848 1.87537C15.0616 1.9184 15.589 2.08247 15.9406 2.21921C16.3742 2.37931 16.7689 2.63327 17.0892 2.96536C17.4213 3.28967 17.6753 3.68038 17.8355 4.11412C17.9723 4.46575 18.1364 4.99701 18.1794 5.96995C18.2262 7.02484 18.238 7.34122 18.238 10.0097C18.238 12.6783 18.2262 12.9908 18.1794 14.0457Z" />
			<path d="M10.0371 4.86407C7.20074 4.86407 4.89941 7.16524 4.89941 10.0018C4.89941 12.8383 7.20074 15.1395 10.0371 15.1395C12.8737 15.1395 15.1749 12.8383 15.1749 10.0018C15.1749 7.16524 12.8737 4.86407 10.0371 4.86407ZM10.0371 13.3345C8.19702 13.3345 6.70442 11.8421 6.70442 10.0018C6.70442 8.16153 8.19702 6.66908 10.0371 6.66908C11.8774 6.66908 13.3698 8.16153 13.3698 10.0018C13.3698 11.8421 11.8774 13.3345 10.0371 13.3345Z" />
			<path d="M16.5775 4.6611C16.5775 5.32346 16.0404 5.86052 15.3779 5.86052C14.7155 5.86052 14.1785 5.32346 14.1785 4.6611C14.1785 3.99858 14.7155 3.46167 15.3779 3.46167C16.0404 3.46167 16.5775 3.99858 16.5775 4.6611Z" />
		</g>
	</symbol>

	<!-- user icon -->
	<symbol id="user" viewBox="0 0 24 24">
		<g>
			<path fill="transparent" d="M8 9C10.0711 9 11.75 7.32107 11.75 5.25C11.75 3.17893 10.0711 1.5 8 1.5C5.92893 1.5 4.25 3.17893 4.25 5.25C4.25 7.32107 5.92893 9 8 9Z" stroke-width="1.5" stroke-linecap="round" stroke-linejoin="round"/>
			<path fill="transparent" d="M14.0264 13.7424C15.4818 14.6714 14.569 16.5 12.8189 16.5H3.18109C1.43097 16.5 0.518189 14.6714 1.97358 13.7424C3.69809 12.6417 5.77063 12 8 12C10.2294 12 12.3019 12.6417 14.0264 13.7424Z" stroke-width="1.5"/>
		</g>
	</symbol>

	<!-- arrow icon -->
	<symbol id="arrow" viewBox="0 0 12 8">
		<g>
			<path fill="transparent" d="M1.41602 1.91667L5.99935 6.08334L10.5827 1.91667" stroke-width="2" stroke-linecap="round" stroke-linejoin="round"/>
		</g>
	</symbol>

	<!-- logo text -->
	<symbol id="logo-text" viewBox="0 0 106 18">
		<g>
			<path d="M16.7106 0.66745H6.16661C6.11453 0.66745 6.06183 0.68878 6.02513 0.72564C5.98889 0.764225 5.96756 0.814419 5.96866 0.866494L5.98466 2.08947L5.97666 3.28969C5.97666 6.14502 5.91533 8.49889 5.79346 10.2825C5.67347 12.027 5.36635 13.5181 4.88544 14.7148C4.44249 15.8043 3.83046 16.3145 2.95915 16.3145C2.72073 16.3145 2.47573 16.2717 2.22822 16.1926C1.98118 16.1117 1.70669 15.9782 1.38577 15.7851L1.16759 15.6523C1.11912 15.6228 1.06532 15.6131 1.00886 15.6302C0.955526 15.6462 0.912704 15.6822 0.887608 15.733L0.526693 16.477C0.481363 16.567 0.512575 16.6737 0.595392 16.7281L0.763852 16.8396C1.13512 17.0897 1.51015 17.2729 1.87703 17.385C2.24955 17.5008 2.60749 17.559 2.94017 17.559C4.33097 17.559 5.35725 16.8091 5.99078 15.3287C6.56611 13.9784 6.92389 12.3131 7.05502 10.3805C7.18316 8.48368 7.24433 5.90175 7.2401 2.70652L7.23524 1.91003H14.1053L14.1158 17.097C14.1158 17.2067 14.2023 17.2944 14.3125 17.2944H16.7332C16.7853 17.2944 16.8361 17.2747 16.873 17.236C16.9109 17.1987 16.9299 17.1491 16.9299 17.097L16.9073 0.864611C16.9073 0.754971 16.8203 0.66745 16.7106 0.66745" />
			<path d="M26.7986 14.1297L26.7912 14.5174C26.4678 14.8208 26.1822 15.0702 25.9427 15.2614C25.7319 15.4292 25.4831 15.572 25.1964 15.6866C24.6965 15.8857 23.887 15.9415 23.3112 15.6559C23.0519 15.5302 22.8565 15.3601 22.7082 15.1332C22.5636 14.9188 22.4913 14.6799 22.4877 14.3975C22.4705 13.8049 22.6267 13.3233 22.9655 12.9251C23.3245 12.5041 23.8577 12.1617 24.5531 11.9104C25.1504 11.6947 25.9016 11.5244 26.7949 11.4025L26.7986 14.1297ZM28.9952 7.22761C28.6514 6.5646 28.1257 6.0586 27.4285 5.72215C26.7594 5.39935 25.9121 5.23748 24.9133 5.23748C24.0434 5.23748 23.2395 5.36861 22.5269 5.62961C21.8148 5.88637 21.1336 6.27662 20.4982 6.78702L20.3377 6.91626C20.2604 6.9801 20.2402 7.09037 20.2935 7.17554L20.7489 7.91745C20.7794 7.96717 20.8303 8.00026 20.8903 8.00764C20.9344 8.01924 21.0055 7.99838 21.0502 7.9598L21.2555 7.77173C21.5588 7.50399 21.8884 7.27043 22.2407 7.08048C22.5942 6.89116 22.9809 6.74231 23.392 6.63816C23.7921 6.53339 24.2234 6.48006 24.6712 6.48006C25.4034 6.48006 25.9193 6.70561 26.2442 7.16754C26.5994 7.6737 26.7832 8.42721 26.7912 9.4033V10.1912C25.3092 10.3615 24.0758 10.6128 23.1219 10.9351C22.0183 11.3081 21.1893 11.8027 20.6599 12.4037C20.1061 13.0335 19.839 13.8177 19.8695 14.7411C19.9001 15.3017 20.084 15.806 20.4166 16.2392C20.7354 16.6583 21.1549 16.9868 21.6647 17.2189C22.1673 17.4449 22.718 17.559 23.3019 17.559C23.9042 17.559 24.4606 17.4757 24.9556 17.3096C25.4359 17.1491 25.8765 16.9193 26.2655 16.6277C26.6135 16.3623 27.0105 16.0033 27.4482 15.5572L28.3366 17.1913C28.3708 17.2556 28.4369 17.2944 28.5105 17.2944H29.3125C29.3646 17.2944 29.4149 17.2747 29.4516 17.236C29.4902 17.1987 29.5092 17.1491 29.5092 17.097L29.5012 9.58462C29.494 8.657 29.3236 7.86537 28.9952 7.22761" />
			<path d="M34.8597 11.805H36.4417C37.0525 11.805 37.566 11.8951 37.9697 12.0727C38.3581 12.2492 38.6382 12.4808 38.8299 12.7848C39.0192 13.0838 39.1155 13.4532 39.1143 13.8858C39.1155 14.6002 38.9108 15.1277 38.4875 15.499C38.0585 15.8795 37.3619 16.073 36.4183 16.073H34.8597V11.805ZM38.428 9.71208C38.2693 9.99018 38.0359 10.201 37.7056 10.356C37.3655 10.5196 36.9268 10.6047 36.4012 10.6047H34.8536L34.8474 6.72077H36.2756C37.1353 6.72077 37.7595 6.89487 38.1321 7.23728C38.5014 7.57733 38.6829 8.04428 38.689 8.65883C38.6817 9.06445 38.594 9.41862 38.428 9.71208V9.71208ZM39.8832 11.1727C39.8832 11.1708 39.8806 11.1708 39.8806 11.1708C39.8403 11.1531 39.7992 11.1366 39.7588 11.1206C40.0027 10.9871 40.219 10.8345 40.407 10.6667C41.0406 10.0882 41.3574 9.38427 41.3475 8.57617C41.3574 7.94249 41.1679 7.37955 40.7851 6.90899C40.418 6.4524 39.8844 6.09712 39.2007 5.85197C38.548 5.61794 37.7435 5.50031 36.8123 5.50031H32.3334C32.2813 5.50031 32.2318 5.51928 32.1949 5.55787C32.1557 5.59473 32.1367 5.64492 32.1367 5.697L32.1485 17.097C32.1485 17.2066 32.2354 17.2943 32.345 17.2943H36.4048C37.5445 17.2943 38.5113 17.1858 39.2741 16.9732C40.086 16.7447 40.7195 16.3819 41.1595 15.8894C41.6201 15.3796 41.8499 14.7258 41.848 13.9494C41.848 13.3332 41.6722 12.7768 41.3205 12.2909C40.9769 11.8241 40.4922 11.4472 39.8832 11.1727" />
			<path d="M49.4324 10.5619L53.7568 5.83064C53.8088 5.77244 53.8223 5.68963 53.7918 5.61794C53.7587 5.54626 53.6893 5.50031 53.6104 5.50031H52.4444C52.3911 5.50031 52.3365 5.52054 52.2998 5.56163L47.4717 10.7481H46.484V5.697C46.484 5.58673 46.397 5.50031 46.2873 5.50031H43.9584C43.9063 5.50031 43.8561 5.51928 43.8194 5.55787C43.7809 5.59473 43.7617 5.64492 43.7617 5.697L43.7735 17.097C43.7735 17.2066 43.8597 17.2943 43.9702 17.2943H46.2873C46.397 17.2943 46.484 17.2066 46.484 17.097V11.9791L47.3185 11.9882L51.7746 17.2243C51.8115 17.2684 51.8672 17.2943 51.9254 17.2943H54.7727C54.8505 17.2943 54.9197 17.2494 54.9528 17.1796C54.9859 17.1086 54.9743 17.0276 54.9241 16.9677L49.4324 10.5619" />
			<path d="M62.5634 14.131L62.5584 14.5157C62.2436 14.8134 61.9495 15.0702 61.7098 15.2614C61.499 15.4317 61.2479 15.572 60.9624 15.6866C60.4611 15.8857 59.6555 15.9415 59.0764 15.6559C58.8192 15.5302 58.6225 15.3601 58.473 15.1332C58.3284 14.9188 58.2573 14.6799 58.2529 14.3975C58.2358 13.8061 58.3927 13.3252 58.7327 12.9251C59.0918 12.5041 59.6248 12.1617 60.3202 11.9104C60.9175 11.6947 61.6689 11.5227 62.5596 11.4025L62.5634 14.131ZM64.761 7.22761C64.4174 6.56287 63.8892 6.05609 63.1938 5.72215C62.5265 5.39935 61.6805 5.23748 60.6805 5.23748C59.8086 5.23748 59.0047 5.36861 58.294 5.62961C57.5821 5.88637 56.8982 6.27662 56.2611 6.78827L56.1023 6.91814C56.0277 6.9801 56.0075 7.09037 56.0595 7.17303L56.5141 7.91509C56.5453 7.96591 56.595 8.00026 56.6532 8.00764C56.7114 8.01924 56.7715 7.99838 56.813 7.9598L57.0226 7.77173C57.3272 7.49959 57.6599 7.26808 58.0073 7.08048C58.3615 6.89116 58.748 6.74231 59.1592 6.63816C59.5575 6.53339 59.9882 6.48006 60.4385 6.48006C61.1707 6.48006 61.6866 6.70561 62.0113 7.16754C62.3667 7.6737 62.5505 8.42721 62.5584 9.4033V10.1912C61.0763 10.3615 59.8417 10.6128 58.8865 10.9351C57.7855 11.3081 56.9566 11.8027 56.4253 12.4037C55.8726 13.0335 55.6061 13.8177 55.6349 14.7411C55.6674 15.3017 55.8512 15.806 56.1814 16.2392C56.5006 16.6583 56.9222 16.9868 57.432 17.2189C57.9325 17.4449 58.4834 17.559 59.069 17.559C59.6713 17.559 60.2277 17.4757 60.7221 17.3096C61.1994 17.1491 61.64 16.9212 62.0328 16.6277C62.3819 16.3605 62.7802 16.0014 63.2146 15.5572L64.1037 17.1913C64.138 17.2556 64.2042 17.2944 64.2776 17.2944H65.0798C65.1318 17.2944 65.182 17.2747 65.2187 17.236C65.2573 17.1987 65.2764 17.1491 65.2764 17.097L65.2684 9.58462C65.2611 8.65888 65.0907 7.86663 64.761 7.22761" />
			<path d="M83.3167 2.5631V2.56059C82.7525 1.95279 82.0014 1.4791 81.0866 1.15442C80.1883 0.829734 79.1351 0.667393 77.9568 0.667393H73.084C73.032 0.667393 72.9818 0.686997 72.9449 0.725583C72.9063 0.762286 72.8867 0.812479 72.8867 0.864554L72.9101 17.097C72.9101 17.2066 72.9995 17.2943 73.1073 17.2943H75.5281C75.5802 17.2943 75.6304 17.2747 75.6672 17.2359C75.7058 17.1986 75.7248 17.149 75.7248 17.097L75.7155 1.90997H77.509C78.2296 1.90997 78.8827 2.03185 79.4488 2.27136C80.007 2.50726 80.4664 2.84371 80.8151 3.27191C81.1644 3.69714 81.3959 4.20879 81.5062 4.79259C81.6337 5.45748 81.6042 6.1743 81.4254 6.91997C81.2513 7.62941 80.8518 8.25133 80.2349 8.7727C79.6265 9.2831 78.7417 9.54174 77.6051 9.54174H76.2327C76.1604 9.54174 76.0954 9.58096 76.0587 9.64276C76.0238 9.7066 76.0256 9.78377 76.0642 9.84384L76.5881 10.6838C76.6248 10.742 76.6887 10.7763 76.7559 10.7763H77.8374C79.559 10.7763 80.9572 10.4656 81.9953 9.84996C83.0509 9.22679 83.7689 8.43892 84.1305 7.50503C84.4895 6.59152 84.5821 5.65904 84.4111 4.73142C84.2536 3.91155 83.8866 3.18125 83.3167 2.5631" />
			<path d="M90.6014 16.336C90.1389 16.336 89.7467 16.2006 89.4012 15.92C89.0262 15.6154 88.7291 15.2283 88.4968 14.7337C88.2512 14.2197 88.0679 13.6402 87.9503 13.0145C87.7658 12.0403 87.7433 11.0159 87.8841 9.96938C88.0171 8.94686 88.3228 8.08104 88.786 7.39984C89.2112 6.7809 89.7448 6.48006 90.4207 6.48006C90.8753 6.48006 91.2785 6.61856 91.6173 6.89116C91.9905 7.19452 92.2968 7.59402 92.5327 8.08543C92.7839 8.60132 92.9677 9.17477 93.0811 9.78931C93.2649 10.7519 93.2864 11.7738 93.1473 12.8308C93.0136 13.8607 92.7092 14.7301 92.2448 15.4121C91.8238 16.0328 91.2847 16.336 90.6014 16.336V16.336ZM94.9057 7.59276C94.4082 6.86607 93.7692 6.28838 93.0107 5.87477C92.2496 5.45989 91.393 5.24924 90.4679 5.24924C89.3356 5.24924 88.3001 5.60451 87.3878 6.30611C86.4853 6.9972 85.8145 7.93768 85.396 9.10121C84.9781 10.2611 84.8911 11.5092 85.1343 12.8136C85.3034 13.6946 85.6319 14.5016 86.1128 15.211C86.6036 15.9316 87.2348 16.5076 87.9883 16.9236C88.7535 17.3445 89.6211 17.559 90.5647 17.559C91.6903 17.559 92.7227 17.2031 93.6326 16.4983C94.5349 15.806 95.2089 14.8693 95.6318 13.7136C96.0526 12.5661 96.1416 11.3144 95.8964 9.99024C95.7279 9.11281 95.3959 8.30722 94.9057 7.59276Z" />
			<path d="M105.426 12.0929C105.052 11.6059 104.514 11.2248 103.835 10.9638C103.794 10.9486 103.754 10.9332 103.716 10.9178C104.285 10.6281 104.726 10.2623 105.029 9.83209C105.363 9.35479 105.532 8.83467 105.529 8.28632C105.529 7.68275 105.344 7.14491 104.979 6.68408C104.626 6.23376 104.116 5.88445 103.47 5.64493C102.287 5.20434 100.839 5.17924 99.3913 5.56165C98.7325 5.73748 98.1015 5.97511 97.5145 6.27046L97.3037 6.37712C97.2559 6.40033 97.2204 6.4408 97.2057 6.49115C97.1886 6.54322 97.1916 6.59765 97.2173 6.64361L97.5757 7.33721C97.6248 7.43398 97.7418 7.47445 97.8398 7.42426L98.0401 7.32623C98.6161 7.05111 99.1626 6.8403 99.6651 6.7018C100.715 6.41147 101.568 6.41759 102.073 6.70556C102.318 6.84516 102.495 7.03213 102.624 7.30113C102.764 7.575 102.83 7.91866 102.827 8.3249C102.832 8.76722 102.729 9.14963 102.519 9.46459C102.305 9.78927 101.993 10.0387 101.566 10.2303C101.114 10.4325 100.571 10.5502 99.961 10.5822H99.7374C99.6302 10.5822 99.5425 10.6642 99.5395 10.7708L99.5199 11.3485L99.5671 11.5882C99.5855 11.6806 99.6651 11.748 99.7607 11.748L100.001 11.7505C100.741 11.7567 101.375 11.8724 101.885 12.0967C102.37 12.305 102.735 12.5869 102.973 12.933C103.205 13.2731 103.325 13.675 103.325 14.1253C103.325 14.5543 103.234 14.923 103.051 15.2515C102.869 15.5744 102.612 15.8238 102.26 16.0125C101.58 16.3703 100.493 16.3973 99.273 16.092C98.7184 15.9531 98.1504 15.7387 97.5807 15.458L97.3767 15.3581C97.2866 15.3134 97.1659 15.3501 97.115 15.445L96.7474 16.1498C96.6966 16.2472 96.7333 16.3665 96.8332 16.4169L97.0396 16.5253C97.5666 16.7936 98.178 17.0234 98.8594 17.2047C99.5414 17.3806 100.235 17.4701 100.92 17.4701C101.87 17.4701 102.725 17.3359 103.465 17.0736C104.241 16.7979 104.859 16.3918 105.3 15.866C105.769 15.317 106.006 14.6664 106 13.9317C106.008 13.213 105.815 12.593 105.426 12.0929" />
		</g>
	</symbol>

	<!-- lupa icon -->
	<symbol id="lupa" viewBox="0 0 16 16">
		<g>
			<path fill="transparent" fill-rule="evenodd" clip-rule="evenodd" d="M1 7.14554C0.999557 4.21437 3.06975 1.69108 5.94452 1.11883C8.81929 0.546586 11.698 2.08477 12.82 4.79267C13.9421 7.50057 12.995 10.624 10.558 12.2528C8.12104 13.8815 4.87287 13.562 2.8 11.4895C1.64763 10.3376 1.00014 8.77495 1 7.14554Z" stroke-width="1.5" stroke-linecap="round" stroke-linejoin="round"/>
			<path fill="transparent" d="M11.4883 11.4905L14.9993 15.0015" stroke-width="1.5" stroke-linecap="round" stroke-linejoin="round"/>
		</g>
	</symbol>

	<!-- phone icon -->
	<symbol id="phone" viewBox="0 0 20 20">
		<g>
			<path fill="transparent" fill-rule="evenodd" clip-rule="evenodd" d="M2.11143 2.75015C3.24419 1.55893 3.64452 1.22482 4.12723 1.06933C4.46129 0.981944 4.81164 0.977092 5.148 1.05519C5.5908 1.1837 5.70794 1.28136 7.15993 2.72573C8.43557 3.99406 8.56301 4.13156 8.68529 4.37957C8.91912 4.8149 8.95565 5.32918 8.7857 5.7931C8.65698 6.14648 8.47419 6.38036 7.70057 7.15523L7.19597 7.66025C7.06346 7.79468 7.03232 7.99883 7.11874 8.16655C8.23983 10.0759 9.83037 11.6682 11.7399 12.7927C11.9597 12.9101 12.2303 12.8722 12.4092 12.6988L12.8945 12.2221C13.1945 11.9152 13.5121 11.626 13.8458 11.356C14.3699 11.0347 15.0229 11.0061 15.5732 11.2802C15.8423 11.4087 15.9311 11.4884 17.2466 12.7991C18.6034 14.1496 18.642 14.1921 18.7913 14.5017C19.0723 15.0144 19.0694 15.6353 18.7836 16.1453C18.6381 16.4331 18.5493 16.5372 17.786 17.316C17.3252 17.7863 16.8914 18.2155 16.8219 18.2784C16.1921 18.7989 15.3842 19.0543 14.5692 18.9904C13.078 18.8547 11.6347 18.3946 10.3407 17.6424C7.47418 16.1263 5.03395 13.9173 3.2429 11.2172C2.8528 10.6521 2.50598 10.0585 2.2054 9.4413C1.39906 8.06165 0.982659 6.4895 1.00055 4.89229C1.06211 4.05672 1.46351 3.28269 2.11143 2.75015Z" stroke-width="1.5" stroke-linecap="round" stroke-linejoin="round"/>
		</g>
	</symbol>

	<!-- mail icon -->
	<symbol id="mail" viewBox="0 0 20 18">
		<g>
			<path fill="transparent" d="M1.44531 3.53452L8.76082 9.30255C9.48707 9.87517 10.5112 9.87517 11.2374 9.30255L18.553 3.53452" stroke-width="1.5" stroke-linejoin="round"/>
			<path fill="transparent" d="M1.49592 14.8199C1.61411 15.7778 2.38404 16.5321 3.34421 16.6302C5.48059 16.8483 7.70887 17.1168 9.99958 17.1168C12.2903 17.1168 14.5186 16.8483 16.655 16.6302C17.6151 16.5321 18.385 15.7778 18.5032 14.8199C18.7341 12.9491 18.9992 11.001 18.9992 8.99996C18.9992 6.9989 18.7341 5.05083 18.5032 3.18005C18.385 2.22215 17.6151 1.4678 16.655 1.36976C14.5186 1.15161 12.2903 0.883148 9.99958 0.883148C7.70887 0.883148 5.48059 1.15161 3.34421 1.36976C2.38404 1.4678 1.61411 2.22215 1.49592 3.18005C1.26509 5.05083 1 6.9989 1 8.99996C1 11.001 1.26509 12.9491 1.49592 14.8199Z" stroke-width="1.5" stroke-linejoin="round"/>
		</g>
	</symbol>

	<!-- favourite icon -->
	<symbol id="favourite" viewBox="0 0 24 24">
		<g>
			<path fill="transparent" d="M12 6.58704C7.6516 1.33266 3.06041 5.06612 3 9.09071C3 15.0822 10.2793 20 12 20C13.7207 20 21 15.0822 21 9.09071C20.9396 5.06612 16.3484 1.33266 12 6.58704Z" />
			<path fill="transparent" d="M3 9.09071L2.25 9.07945V9.09071H3ZM12 6.58704L11.4222 7.06521C11.5647 7.23738 11.7765 7.33704 12 7.33704C12.2235 7.33704 12.4353 7.23738 12.5778 7.06521L12 6.58704ZM21 9.09071H21.7501L21.7499 9.07945L21 9.09071ZM3.74992 9.10196C3.77636 7.34039 4.80175 5.68479 6.20482 5.04091C6.89023 4.72637 7.68269 4.64218 8.54398 4.91143C9.41449 5.18355 10.4021 5.83256 11.4222 7.06521L12.5778 6.10887C11.4237 4.71433 10.2067 3.85963 8.99153 3.47975C7.76711 3.09699 6.59267 3.21251 5.57919 3.67761C3.58446 4.59301 2.28405 6.81644 2.25008 9.07945L3.74992 9.10196ZM12 19.25C11.9304 19.25 11.7358 19.2165 11.3989 19.0811C11.0807 18.9532 10.6911 18.7573 10.2537 18.4949C9.37949 17.9703 8.3541 17.2039 7.37754 16.2544C5.40233 14.3341 3.75 11.7895 3.75 9.09071H2.25C2.25 12.3834 4.23732 15.2935 6.33193 17.3299C7.39027 18.3589 8.50735 19.1963 9.48194 19.7811C9.96896 20.0733 10.4304 20.3084 10.8396 20.4729C11.2301 20.6299 11.6394 20.75 12 20.75V19.25ZM21.7499 9.07945C21.7159 6.81644 20.4155 4.59301 18.4208 3.67761C17.4073 3.21251 16.2329 3.09699 15.0084 3.47975C13.7932 3.85963 12.5763 4.71433 11.4222 6.10887L12.5778 7.06521C13.5979 5.83256 14.5855 5.18355 15.456 4.91143C16.3173 4.64218 17.1098 4.72637 17.7952 5.04091C19.1982 5.68479 20.2236 7.34039 20.2501 9.10196L21.7499 9.07945ZM12 20.75C12.3605 20.75 12.7698 20.6299 13.1604 20.4729C13.5696 20.3084 14.031 20.0733 14.518 19.7811C15.4926 19.1963 16.6097 18.3589 17.6681 17.3299C19.7627 15.2935 21.75 12.3834 21.75 9.09071H20.25C20.25 11.7895 18.5977 14.3341 16.6224 16.2544C15.6459 17.2039 14.6205 17.9703 13.7463 18.4949C13.3089 18.7573 12.9193 18.9532 12.6011 19.0811C12.2642 19.2165 12.0696 19.25 12 19.25V20.75Z" />
		</g>
	</symbol>

	<!-- shopping-cart icon -->
	<symbol id="shopping-cart" viewBox="0 0 20 20">
		<g>
			<path stroke-width="0.3" fill="transparent" d="M2.14991 17.0586C1.40314 14.183 1.10756 10.6607 1.0256 8.74863C1.00195 8.19685 1.44772 7.75 2 7.75H18C18.5523 7.75 18.998 8.19685 18.9744 8.74863C18.8924 10.6607 18.5969 14.183 17.8501 17.0586C17.6501 17.8287 17.0868 18.4292 16.3043 18.5736C15.133 18.7896 13.1135 19 10 19C6.88651 19 4.86695 18.7896 3.69568 18.5736C2.91323 18.4292 2.3499 17.8287 2.14991 17.0586Z" />
			<path stroke-width="0.3" d="M1.0256 8.74863L0.276291 8.78074L1.0256 8.74863ZM2.14991 17.0586L2.87583 16.8701L2.14991 17.0586ZM3.69568 18.5736L3.83173 17.836H3.83173L3.69568 18.5736ZM18.9744 8.74863L19.7237 8.78074V8.78074L18.9744 8.74863ZM17.8501 17.0586L18.576 17.2471L17.8501 17.0586ZM16.3043 18.5736L16.1683 17.836L16.3043 18.5736ZM0.276291 8.78074C0.359088 10.7125 0.657599 14.296 1.42399 17.2471L2.87583 16.8701C2.14868 14.07 1.85603 10.6089 1.77491 8.71651L0.276291 8.78074ZM3.55963 19.3111C4.78925 19.5379 6.85701 19.75 10 19.75V18.25C6.91602 18.25 4.94465 18.0413 3.83173 17.836L3.55963 19.3111ZM18.2251 8.71651C18.144 10.6089 17.8513 14.07 17.1242 16.8701L18.576 17.2471C19.3424 14.296 19.6409 10.7125 19.7237 8.78074L18.2251 8.71651ZM16.1683 17.836C15.0553 18.0413 13.084 18.25 10 18.25V19.75C13.143 19.75 15.2107 19.5379 16.4404 19.3111L16.1683 17.836ZM2 8.5H18V7H2V8.5ZM17.1242 16.8701C16.986 17.4022 16.6218 17.7523 16.1683 17.836L16.4404 19.3111C17.5517 19.1061 18.3142 18.2552 18.576 17.2471L17.1242 16.8701ZM19.7237 8.78074C19.7664 7.78447 18.9608 7 18 7V8.5C18.1438 8.5 18.2297 8.60922 18.2251 8.71651L19.7237 8.78074ZM1.42399 17.2471C1.68577 18.2552 2.44831 19.1061 3.55963 19.3111L3.83173 17.836C3.37815 17.7523 3.01403 17.4022 2.87583 16.8701L1.42399 17.2471ZM1.77491 8.71651C1.77032 8.60922 1.85623 8.5 2 8.5V7C1.0392 7 0.233589 7.78447 0.276291 8.78074L1.77491 8.71651Z" />
			<path stroke-width="0.3" d="M4 7.75C4 8.16421 4.33579 8.5 4.75 8.5C5.16421 8.5 5.5 8.16421 5.5 7.75H4ZM14.5 7.75C14.5 8.16421 14.8358 8.5 15.25 8.5C15.6642 8.5 16 8.16421 16 7.75H14.5ZM5.5 7.75V6H4V7.75H5.5ZM9.75 1.75H10.25V0.25H9.75V1.75ZM14.5 6V7.75H16V6H14.5ZM10.25 1.75C12.5972 1.75 14.5 3.65279 14.5 6H16C16 2.82436 13.4256 0.25 10.25 0.25V1.75ZM5.5 6C5.5 3.65279 7.40279 1.75 9.75 1.75V0.25C6.57436 0.25 4 2.82436 4 6H5.5Z" />
			<path fill="transparent" d="M7 12.25V14.5M13 12.25V14.5" stroke-width="1" stroke-linecap="round" stroke-linejoin="round"/>
		</g>
	</symbol>

	<!-- location icon -->
	<symbol id="location" viewBox="-3.13 0 30.5 30.5">
		<g>
			<path id="Path_223" data-name="Path 223" d="M16,7.4a4.925,4.925,0,1,0,4.925,4.925A4.928,4.928,0,0,0,16,7.4Zm0,2a2.925,2.925,0,1,1-2.925,2.925A2.927,2.927,0,0,1,16,9.4Z" transform="translate(-3.878 -1)" fill-rule="evenodd"/>
			<path id="Path_224" data-name="Path 224" d="M16,1A12.128,12.128,0,0,0,3.878,13.122,18.744,18.744,0,0,0,7.994,24.293a31.929,31.929,0,0,0,7.47,7.051,1,1,0,0,0,1.072,0,31.929,31.929,0,0,0,7.47-7.051,18.744,18.744,0,0,0,4.116-11.171A12.128,12.128,0,0,0,16,1Zm0,2A10.127,10.127,0,0,1,26.122,13.122a16.749,16.749,0,0,1-3.714,9.97A30.284,30.284,0,0,1,16,29.29a30.284,30.284,0,0,1-6.408-6.2,16.749,16.749,0,0,1-3.714-9.97A10.127,10.127,0,0,1,16,3Z" transform="translate(-3.878 -1)" fill-rule="evenodd"/>
		</g>
	</symbol>

	<!-- home icon -->
	<symbol id="home" viewBox="0 0 32 32">
		<g>
			<path d="M16.6123,2.2138a1.01,1.01,0,0,0-1.2427,0L1,13.4194l1.2427,1.5717L4,13.6209V26a2.0041,2.0041,0,0,0,2,2H26a2.0037,2.0037,0,0,0,2-2V13.63L29.7573,15,31,13.4282ZM18,26H14V18h4Zm2,0V18a2.0023,2.0023,0,0,0-2-2H14a2.002,2.002,0,0,0-2,2v8H6V12.0615l10-7.79,10,7.8005V26Z" transform="translate(0 0)"/>
		</g>
	</symbol>

	<!-- catalog icon -->
	<symbol id="catalog" viewBox="0 0 22 14">
		<g>
			<path fill="transparent" fill-rule="evenodd" clip-rule="evenodd" d="M18.1825 2.57547C20.2832 4.6761 20.2832 8.08189 18.1825 10.1825C16.0819 12.2832 12.6761 12.2832 10.5755 10.1825C8.47484 8.0819 8.47484 4.67611 10.5755 2.57547C12.6761 0.474842 16.0819 0.474842 18.1825 2.57547Z" />
			<path fill="transparent" d="M18.1825 2.57547C20.2832 4.6761 20.2832 8.08189 18.1825 10.1825C16.0819 12.2832 12.6761 12.2832 10.5755 10.1825C8.47484 8.0819 8.47484 4.67611 10.5755 2.57547C12.6761 0.474842 16.0819 0.474842 18.1825 2.57547" stroke-width="1.5" stroke-linecap="round" stroke-linejoin="round"/>
			<path d="M20.9997 12.9997L18.1797 10.1797" stroke-width="1.5" stroke-linecap="round" stroke-linejoin="round"/>
			<path d="M1 3H5" stroke-width="1.5" stroke-linecap="round" stroke-linejoin="round"/>
			<path d="M1 8H6" stroke-width="1.5" stroke-linecap="round" stroke-linejoin="round"/>
			<path d="M1 13H9" stroke-width="1.5" stroke-linecap="round" stroke-linejoin="round"/>
		</g>
	</symbol>

</svg>
